<svg xmlns="http://www.w3.org/2000/svg" width="25" height="22" viewBox="0 0 25 22" fill="none">
<path d="M16.8062 0.0263672C18.0891 0.0263672 19.1291 1.42189 19.1291 3.14374C19.1291 4.8651 18.0891 6.26112 16.8062 6.26112C15.5233 6.26112 14.4834 4.86507 14.4834 3.14374C14.4835 1.42192 15.5235 0.0263672 16.8062 0.0263672ZM8.87917 0.0263672C10.1622 0.0263672 11.2022 1.42189 11.2022 3.14374C11.2022 4.8651 10.1623 6.26112 8.87917 6.26112C7.59679 6.26112 6.55701 4.86507 6.55701 3.14374C6.55701 1.42192 7.59679 0.0263672 8.87917 0.0263672ZM3.23577 11.3295C1.95275 11.3295 0.912964 9.93403 0.912964 8.21227C0.912964 6.49045 1.95275 5.0948 3.23577 5.0948C4.51856 5.0948 5.55852 6.49042 5.55852 8.21227C5.55852 9.93406 4.51856 11.3295 3.23577 11.3295ZM19.0257 21.5391C17.8005 22.2862 16.1633 22.038 14.6325 21.0454C13.6793 20.6256 12.0964 20.1984 10.4614 20.9286C10.1601 21.1357 9.85471 21.3147 9.54804 21.4624C8.24412 22.0919 6.92345 22.1668 5.89341 21.5391C3.82886 20.2797 3.71441 16.673 5.63787 13.4827C6.14273 12.6453 6.7376 11.9197 7.37841 11.3279L7.3842 11.3226L7.38577 11.3205L7.38851 11.3188L7.39005 11.3172C8.3501 10.4335 9.41156 9.84888 10.4236 9.63777C11.6972 9.2448 13.2808 9.10972 15.0021 9.7729C16.5447 10.274 18.1427 11.5934 19.2814 13.4826C21.2048 16.673 21.0902 20.2797 19.0257 21.5391ZM22.0031 11.3279C20.7207 11.3279 19.6803 9.93233 19.6803 8.21054C19.6803 6.48875 20.7207 5.09328 22.0031 5.09328C23.286 5.09328 24.3259 6.48878 24.3259 8.2106C24.3259 9.93242 23.286 11.3279 22.0031 11.3279Z" fill="white"/>
</svg>