<svg width="34" height="34" viewBox="0 0 34 34" fill="none" xmlns="http://www.w3.org/2000/svg">
<g filter="url(#filter0_d_3881_2289)">
<rect x="6" y="6" width="22" height="22" rx="11" fill="white" shape-rendering="crispEdges"/>
<path d="M11.1665 14.8868C11.1665 14.6824 11.1665 14.5803 11.175 14.4942C11.2573 13.6642 11.9139 13.0075 12.744 12.9253C12.83 12.9167 12.9377 12.9167 13.1531 12.9167C13.2361 12.9167 13.2776 12.9167 13.3128 12.9146C13.7627 12.8874 14.1566 12.6034 14.3248 12.1852C14.3379 12.1525 14.3502 12.1156 14.3748 12.0417C14.3994 11.9679 14.4118 11.931 14.4249 11.8982C14.593 11.4801 14.987 11.1961 15.4369 11.1689C15.4721 11.1667 15.511 11.1667 15.5888 11.1667H18.4108C18.4887 11.1667 18.5276 11.1667 18.5628 11.1689C19.0127 11.1961 19.4066 11.4801 19.5748 11.8982C19.5879 11.931 19.6002 11.9679 19.6248 12.0417C19.6494 12.1156 19.6618 12.1525 19.6749 12.1852C19.843 12.6034 20.237 12.8874 20.6869 12.9146C20.7221 12.9167 20.7636 12.9167 20.8466 12.9167C21.062 12.9167 21.1697 12.9167 21.2557 12.9253C22.0858 13.0075 22.7424 13.6642 22.8246 14.4942C22.8332 14.5803 22.8332 14.6824 22.8332 14.8868V19.4501C22.8332 20.4302 22.8332 20.9202 22.6424 21.2946C22.4747 21.6238 22.2069 21.8916 21.8777 22.0593C21.5033 22.2501 21.0133 22.2501 20.0332 22.2501H13.9665C12.9864 22.2501 12.4964 22.2501 12.122 22.0593C11.7927 21.8916 11.525 21.6238 11.3572 21.2946C11.1665 20.9202 11.1665 20.4302 11.1665 19.4501V14.8868Z" stroke="#E96959" stroke-width="1.5" stroke-linecap="round" stroke-linejoin="round"/>
<path d="M16.9998 19.6251C18.2885 19.6251 19.3332 18.5804 19.3332 17.2917C19.3332 16.0031 18.2885 14.9584 16.9998 14.9584C15.7112 14.9584 14.6665 16.0031 14.6665 17.2917C14.6665 18.5804 15.7112 19.6251 16.9998 19.6251Z" stroke="#E96959" stroke-width="1.5" stroke-linecap="round" stroke-linejoin="round"/>
</g>
<defs>
<filter id="filter0_d_3881_2289" x="0" y="0" width="34" height="34" filterUnits="userSpaceOnUse" color-interpolation-filters="sRGB">
<feFlood flood-opacity="0" result="BackgroundImageFix"/>
<feColorMatrix in="SourceAlpha" type="matrix" values="0 0 0 0 0 0 0 0 0 0 0 0 0 0 0 0 0 0 127 0" result="hardAlpha"/>
<feOffset/>
<feGaussianBlur stdDeviation="3"/>
<feComposite in2="hardAlpha" operator="out"/>
<feColorMatrix type="matrix" values="0 0 0 0 0 0 0 0 0 0 0 0 0 0 0 0 0 0 0.25 0"/>
<feBlend mode="normal" in2="BackgroundImageFix" result="effect1_dropShadow_3881_2289"/>
<feBlend mode="normal" in="SourceGraphic" in2="effect1_dropShadow_3881_2289" result="shape"/>
</filter>
</defs>
</svg>
