<svg xmlns="http://www.w3.org/2000/svg" width="16" height="16" viewBox="0 0 16 16" fill="none">
  <g clip-path="url(#clip0_3262_561)">
    <g filter="url(#filter0_d_3262_561)">
      <path d="M12.565 3.29941H11.1403V3.07071C11.1351 2.93078 11.0758 2.79831 10.975 2.70114C10.8742 2.60397 10.7396 2.54968 10.5996 2.54968C10.4596 2.54968 10.325 2.60397 10.2242 2.70114C10.1233 2.79831 10.0641 2.93078 10.0589 3.07071V3.30163H6.4752V3.07071C6.47002 2.93078 6.41079 2.79831 6.30996 2.70114C6.20913 2.60397 6.07456 2.54968 5.93453 2.54968C5.7945 2.54968 5.65993 2.60397 5.5591 2.70114C5.45827 2.79831 5.39904 2.93078 5.39386 3.07071V3.30163H3.92322C3.11425 3.30163 2.4585 3.93519 2.4585 4.71677V12.5237C2.4585 13.3053 3.11425 13.9388 3.92322 13.9388H12.565C13.374 13.9388 14.0297 13.3053 14.0297 12.5237V4.71455C14.0297 3.93297 13.374 3.29941 12.565 3.29941ZM11.2742 8.85929L7.83334 12.1514C7.71577 12.264 7.55867 12.326 7.39587 12.3239C7.23307 12.3218 7.07761 12.2559 6.96294 12.1403L5.08819 10.2544C4.97208 10.1375 4.90716 9.97932 4.90772 9.81456C4.90827 9.6498 4.97425 9.49201 5.09115 9.3759C5.20804 9.25979 5.36627 9.19488 5.53103 9.19543C5.69579 9.19599 5.85358 9.26197 5.96969 9.37886L7.41442 10.8325L10.4149 7.96151C10.4732 7.90189 10.5429 7.8546 10.6198 7.82246C10.6968 7.79032 10.7794 7.77398 10.8628 7.77443C10.9462 7.77487 11.0286 7.79208 11.1052 7.82503C11.1818 7.85798 11.251 7.90601 11.3086 7.96624C11.3663 8.02648 11.4112 8.0977 11.4408 8.17566C11.4704 8.25363 11.4839 8.33674 11.4807 8.42006C11.4775 8.50338 11.4576 8.5852 11.4221 8.66066C11.3866 8.73612 11.3363 8.80367 11.2742 8.85929ZM12.8581 5.75887C12.8572 5.8065 12.847 5.85348 12.8279 5.89712C12.8088 5.94076 12.7812 5.98019 12.7468 6.01314C12.7124 6.04609 12.6719 6.07191 12.6274 6.08912C12.583 6.10632 12.5357 6.11458 12.488 6.1134H3.99723C3.90169 6.11478 3.80949 6.07825 3.74082 6.01181C3.67216 5.94536 3.63262 5.85441 3.63087 5.75887V4.77302C3.63164 4.72568 3.64173 4.67896 3.66056 4.63552C3.67939 4.59209 3.70659 4.55279 3.74061 4.51986C3.77463 4.48694 3.81481 4.46104 3.85884 4.44365C3.90287 4.42626 3.9499 4.41771 3.99723 4.41849H5.39386V4.72565C5.39904 4.86558 5.45827 4.99805 5.5591 5.09522C5.65993 5.19239 5.7945 5.24668 5.93453 5.24668C6.07456 5.24668 6.20913 5.19239 6.30996 5.09522C6.41079 4.99805 6.47002 4.86558 6.4752 4.72565V4.42071H10.0589V4.72787C10.0641 4.8678 10.1233 5.00028 10.2242 5.09744C10.325 5.19461 10.4596 5.2489 10.5996 5.2489C10.7396 5.2489 10.8742 5.19461 10.975 5.09744C11.0758 5.00028 11.1351 4.8678 11.1403 4.72787V4.42071H12.491C12.5386 4.41944 12.5861 4.42762 12.6305 4.44479C12.675 4.46196 12.7156 4.48778 12.75 4.52075C12.7844 4.55372 12.812 4.59319 12.831 4.63687C12.8501 4.68055 12.8603 4.72758 12.8611 4.77524L12.8581 5.75887Z" fill="#FFFEFC"/>
    </g>
  </g>
  <defs>
    <filter id="filter0_d_3262_561" x="1.19304" y="1.91695" width="14.1022" height="13.9201" filterUnits="userSpaceOnUse" color-interpolation-filters="sRGB">
      <feFlood flood-opacity="0" result="BackgroundImageFix"/>
      <feColorMatrix in="SourceAlpha" type="matrix" values="0 0 0 0 0 0 0 0 0 0 0 0 0 0 0 0 0 0 127 0" result="hardAlpha"/>
      <feOffset dy="0.63273"/>
      <feGaussianBlur stdDeviation="0.63273"/>
      <feComposite in2="hardAlpha" operator="out"/>
      <feColorMatrix type="matrix" values="0 0 0 0 0 0 0 0 0 0 0 0 0 0 0 0 0 0 0.25 0"/>
      <feBlend mode="normal" in2="BackgroundImageFix" result="effect1_dropShadow_3262_561"/>
      <feBlend mode="normal" in="SourceGraphic" in2="effect1_dropShadow_3262_561" result="shape"/>
    </filter>
    <clipPath id="clip0_3262_561">
      <rect width="16" height="16" fill="white"/>
    </clipPath>
  </defs>
</svg>
