<svg width="24" height="18" viewBox="0 0 24 18" fill="none" xmlns="http://www.w3.org/2000/svg">
<g filter="url(#filter0_d_3967_2041)">
<path d="M3.72041 2.60064C3.75204 2.65815 3.8383 2.7377 3.9792 2.84026C5.33383 3.61981 6.54789 4.31629 7.62137 4.92971C8.08143 5.19808 8.52904 5.45687 8.96322 5.70607C9.39773 5.95527 9.7875 6.17572 10.1326 6.36741C10.4776 6.5591 10.7584 6.71246 10.976 6.82748L11.2827 7.01917C11.6661 7.26166 11.9278 7.38339 12.0687 7.38339C12.1329 7.38339 12.2536 7.34217 12.4329 7.25879C12.5824 7.19049 12.7294 7.11696 12.8738 7.03834L20.1581 2.84026C20.3115 2.69936 20.4006 2.61022 20.4265 2.57189C20.4524 2.53355 20.4648 2.45687 20.4648 2.34185V1.95847C20.4648 1.66454 20.3881 1.4345 20.2348 1.26837C20.0814 1.10256 19.8064 1.01917 19.4105 1.01917L4.70763 1C4.33703 1 4.07185 1.09265 3.91211 1.27796C3.75236 1.46326 3.67249 1.70288 3.67249 1.99681V2.34185C3.67249 2.45687 3.68846 2.54313 3.72041 2.60064ZM20.4648 4.43131C20.4648 4.2524 20.4009 4.15016 20.2731 4.1246C20.1457 4.09872 19.9731 4.15623 19.7556 4.29712C19.6405 4.36134 19.4326 4.48882 19.1326 4.68051C18.8326 4.8722 18.5191 5.07061 18.1933 5.27476C17.8674 5.47891 17.5731 5.66773 17.3115 5.84025C17.0498 6.01278 16.906 6.10575 16.8802 6.11821C16.7393 6.20735 15.1674 7.21086 15.0399 7.28754C14.9632 7.33834 14.8195 7.42843 14.6086 7.55591C14.3977 7.68339 14.1744 7.82141 13.9377 7.96805C13.7009 8.1147 13.4805 8.24888 13.2763 8.37061L12.8738 8.61022C12.7857 8.65879 12.6925 8.69736 12.5958 8.72524C12.4741 8.76358 12.3437 8.79233 12.2028 8.8115C12.053 8.8305 11.9012 8.82727 11.7524 8.80192C11.5838 8.7728 11.4235 8.70739 11.2827 8.61022C11.1294 8.52109 10.9501 8.41182 10.746 8.28434L10.1326 7.86262C9.94009 7.74243 9.7484 7.62102 9.55747 7.4984C9.37824 7.38339 7.19965 6.0607 6.89294 5.86901C6.58623 5.67732 6.25076 5.46965 5.88655 5.24601C5.52233 5.02236 5.18367 4.8115 4.87057 4.61342C4.55747 4.41534 4.36259 4.29073 4.28591 4.23962C4.10699 4.11182 3.95683 4.07987 3.83543 4.14377C3.7137 4.20799 3.65332 4.36134 3.65332 4.60383V11.0447C3.65332 11.2875 3.68527 11.5272 3.74917 11.7636C3.81338 12.0003 3.92169 12.2073 4.07505 12.3866C4.2284 12.5658 4.43926 12.7125 4.70763 12.8275C4.976 12.9425 5.32776 13 5.76195 13H18.5671C18.8354 13 19.0846 12.9837 19.3147 12.9521C19.5447 12.9204 19.746 12.8399 19.9185 12.7125C20.091 12.585 20.2252 12.3962 20.3211 12.147C20.4169 11.8978 20.4648 11.5556 20.4648 11.1214V4.43131Z" fill="url(#paint0_linear_3967_2041)"/>
<path d="M4.60352 5.03613C4.91868 5.23552 5.25928 5.44731 5.625 5.67188C5.98828 5.89494 6.32253 6.10209 6.62793 6.29297C6.9564 6.49826 9.10293 7.80085 9.28711 7.91895L9.86816 8.28711L10.4629 8.69629L10.4717 8.70215L10.4814 8.70801C10.6877 8.83679 10.8714 8.95007 11.0312 9.04297V9.04102C11.2239 9.16769 11.4395 9.2556 11.667 9.29492H11.668C11.8653 9.32854 12.067 9.3328 12.2656 9.30762L12.2705 9.30664C12.4322 9.28462 12.5861 9.25067 12.7334 9.20508L12.7344 9.20605C12.7383 9.20493 12.7422 9.2033 12.7461 9.20215L12.7451 9.20117C12.8736 9.16325 12.9979 9.11252 13.1152 9.04785L13.1221 9.04395L13.1299 9.04004L13.5322 8.7998C13.7392 8.67642 13.9624 8.54143 14.2012 8.39355C14.438 8.24685 14.6589 8.1093 14.8672 7.9834C15.0792 7.85523 15.2308 7.76085 15.3164 7.7041L15.3154 7.70312C15.5371 7.56607 17.0201 6.62162 17.1475 6.54102L17.1455 6.53809C17.1885 6.51303 17.2398 6.48385 17.2783 6.45898C17.3524 6.41121 17.4559 6.34422 17.5869 6.25781C17.8448 6.08778 18.1359 5.90067 18.459 5.69824C18.786 5.49339 19.1003 5.29395 19.4014 5.10156C19.6704 4.92968 19.8567 4.81528 19.9648 4.75293V11.1211C19.9648 11.5276 19.9188 11.8006 19.8545 11.9678C19.7843 12.1501 19.7 12.2523 19.6211 12.3105C19.5203 12.3849 19.3986 12.4361 19.2461 12.457C19.0414 12.4851 18.8154 12.5 18.5674 12.5H5.76172C5.36527 12.5 5.08767 12.4468 4.9043 12.3682C4.6896 12.2761 4.54781 12.1699 4.45508 12.0615C4.3777 11.9711 4.31647 11.8698 4.27148 11.7539L4.23145 11.6328C4.17903 11.4387 4.15334 11.2431 4.15332 11.0449V4.74707C4.25963 4.81538 4.40965 4.91348 4.60352 5.03613ZM19.4102 1.51953C19.7585 1.51953 19.8562 1.59641 19.8672 1.60742C19.9121 1.65611 19.9648 1.75125 19.9648 1.95801V2.33398C19.9367 2.36155 19.901 2.39513 19.8574 2.43555L12.6289 6.60254C12.4969 6.67429 12.3623 6.74126 12.2256 6.80371L12.2217 6.80566C12.151 6.83852 12.0977 6.85852 12.0605 6.87207C12.0399 6.86454 12.0115 6.85506 11.9766 6.83887C11.8731 6.79086 11.7323 6.71208 11.5498 6.59668L11.5479 6.59473L11.2412 6.40332L11.2256 6.39355L11.21 6.38574L10.375 5.93066C10.0324 5.74034 9.64488 5.52078 9.21191 5.27246C8.77871 5.02383 8.33198 4.76576 7.87305 4.49805L7.86914 4.49512C6.80484 3.88695 5.60186 3.19752 4.26074 2.42578C4.22287 2.39786 4.1943 2.37462 4.17285 2.35645V1.99707C4.17285 1.79772 4.22458 1.68156 4.29102 1.60449C4.31569 1.57591 4.40711 1.5001 4.70703 1.5L19.4102 1.51953Z" stroke="white" stroke-opacity="0.6"/>
</g>
<defs>
<filter id="filter0_d_3967_2041" x="0.65332" y="0" width="22.8115" height="18" filterUnits="userSpaceOnUse" color-interpolation-filters="sRGB">
<feFlood flood-opacity="0" result="BackgroundImageFix"/>
<feColorMatrix in="SourceAlpha" type="matrix" values="0 0 0 0 0 0 0 0 0 0 0 0 0 0 0 0 0 0 127 0" result="hardAlpha"/>
<feOffset dy="2"/>
<feGaussianBlur stdDeviation="1.5"/>
<feComposite in2="hardAlpha" operator="out"/>
<feColorMatrix type="matrix" values="0 0 0 0 0.201961 0 0 0 0 0.153902 0 0 0 0 0.153902 0 0 0 0.25 0"/>
<feBlend mode="normal" in2="BackgroundImageFix" result="effect1_dropShadow_3967_2041"/>
<feBlend mode="normal" in="SourceGraphic" in2="effect1_dropShadow_3967_2041" result="shape"/>
</filter>
<linearGradient id="paint0_linear_3967_2041" x1="12.0591" y1="1" x2="12.0591" y2="13" gradientUnits="userSpaceOnUse">
<stop stop-color="white"/>
<stop offset="1" stop-color="#F7DECF"/>
</linearGradient>
</defs>
</svg>
