<svg width="28" height="26" viewBox="0 0 28 26" fill="none" xmlns="http://www.w3.org/2000/svg">
<path d="M1 13C1 5.8203 6.8203 0 14 0C21.1797 0 27 5.8203 27 13C27 20.1797 21.1797 26 14 26C6.8203 26 1 20.1797 1 13Z" fill="url(#paint0_linear_3966_7767)"/>
<path d="M14 0.458008C20.9267 0.458008 26.542 6.07325 26.542 13C26.542 19.9267 20.9267 25.542 14 25.542C7.07325 25.542 1.45801 19.9267 1.45801 13C1.45801 6.07325 7.07325 0.458008 14 0.458008Z" stroke="white" stroke-opacity="0.3" stroke-width="0.916031"/>
<g filter="url(#filter0_d_3966_7767)">
<path d="M24.7145 12.8207C24.7145 12.4007 24.4896 11.9049 24.2503 11.571C22.3944 8.96972 19.1316 8.23983 17.1684 8.09592C16.6274 7.49002 14.1294 5.58862 14.1294 5.58862C12.8084 4.58887 12.8155 5.58862 12.8155 5.58862V8.71372C9.26028 10.5652 9.26028 11.547 8.46165 12.0549C7.66316 12.5628 6.82876 11.2192 5.52305 10.0933C4.21722 8.96769 3.70903 9.33059 3.78166 10.0933C3.83694 10.6703 4.40951 11.9329 4.68553 12.5168C4.73671 12.6747 4.76742 12.9387 4.6058 13.2976C4.31138 13.9284 3.83077 15.0261 3.78166 15.552C3.70915 16.3138 4.21734 16.6777 5.52305 15.552C6.82873 14.4243 7.66316 13.0826 8.46176 13.5905C9.26028 14.0984 9.26028 15.08 12.8155 16.9315V20.0548C12.8155 20.0548 12.8084 21.0565 14.1294 20.0548C14.1294 20.0548 16.6274 18.1543 17.1684 17.5494C19.1316 17.4045 22.3953 16.6757 24.2501 14.0743C24.4894 13.7384 24.7144 13.2447 24.7144 12.8227V12.8207H24.7145V12.8207ZM21.0999 13.9144C20.4977 13.9144 20.0089 13.4245 20.0089 12.8227C20.0089 12.2188 20.4977 11.731 21.0999 11.731C21.7021 11.731 22.1909 12.2188 22.1909 12.8227C22.1909 13.4245 21.7021 13.9144 21.0999 13.9144Z" fill="url(#paint1_linear_3966_7767)"/>
<path d="M21.1001 11.2312C20.2218 11.2312 19.5093 11.9429 19.5093 12.823C19.5094 13.7003 20.2213 14.4148 21.1001 14.4148C21.9788 14.4147 22.6908 13.7002 22.6909 12.823C22.6909 11.9429 21.9783 11.2313 21.1001 11.2312ZM13.3159 16.6287L13.0464 16.488C11.3021 15.5796 10.4578 14.8988 9.95752 14.4021C9.70221 14.1486 9.53416 13.9423 9.35596 13.738C9.18198 13.5386 8.99313 13.3361 8.72998 13.1687C8.388 12.9512 8.02553 12.9354 7.68799 13.0505C7.38151 13.1551 7.10099 13.3647 6.85303 13.5818C6.6006 13.8028 6.33364 14.0766 6.06592 14.3464C5.79218 14.6223 5.50636 14.9053 5.1958 15.1736C4.88879 15.4382 4.64839 15.5974 4.47021 15.6843C4.38202 15.7273 4.3191 15.747 4.27783 15.7566C4.27376 15.7209 4.27312 15.6693 4.27979 15.5994V15.5984C4.29704 15.414 4.40317 15.0684 4.56787 14.6453C4.7253 14.2408 4.91414 13.8201 5.05908 13.5095L5.06201 13.5027C5.27665 13.0259 5.24918 12.6335 5.16162 12.363L5.15088 12.3318L5.13721 12.3035L4.89209 11.7693C4.80092 11.5647 4.70423 11.3403 4.61475 11.1169C4.47406 10.7657 4.36716 10.4546 4.31396 10.2341L4.27979 10.0457C4.27308 9.97503 4.27369 9.92322 4.27783 9.88745C4.31913 9.89709 4.38195 9.91762 4.47021 9.96069C4.64858 10.0478 4.88944 10.2075 5.19678 10.4724C5.50714 10.74 5.79231 11.0229 6.06592 11.2986C6.33359 11.5682 6.60067 11.8422 6.85303 12.0632C7.1008 12.2803 7.3808 12.4897 7.68701 12.5945C8.02451 12.7099 8.38778 12.6948 8.72998 12.4773C8.99315 12.3099 9.18197 12.1074 9.35596 11.908C9.53428 11.7036 9.70208 11.4965 9.95752 11.2429C10.4579 10.7462 11.3022 10.0653 13.0464 9.15698L13.3159 9.01733V5.67554C13.4204 5.71638 13.5857 5.80468 13.8257 5.98608H13.8267V5.98706L13.8286 5.98804C13.8298 5.98891 13.8314 5.99036 13.8335 5.99194C13.8381 5.99547 13.845 6.0007 13.854 6.00757C13.8722 6.02147 13.8997 6.04172 13.9341 6.06812C14.0029 6.1209 14.1016 6.19751 14.2222 6.29077C14.4636 6.47757 14.7906 6.73294 15.1343 7.00659C15.8405 7.56894 16.5597 8.16465 16.7954 8.42847L16.9302 8.57983L17.1323 8.59448C19.0519 8.73527 22.1204 9.44647 23.8433 11.8611L23.8442 11.8621C24.0519 12.1519 24.2144 12.5466 24.2144 12.821V12.823C24.2142 13.0991 24.0519 13.491 23.8433 13.7839C22.1215 16.1988 19.0515 16.9088 17.1313 17.0505L16.9302 17.0652L16.7954 17.2166C16.5595 17.4801 15.8404 18.0756 15.1343 18.6375C14.7906 18.9109 14.4636 19.1666 14.2222 19.3533C14.1018 19.4463 14.0029 19.5222 13.9341 19.575C13.8997 19.6013 13.8722 19.6216 13.854 19.6355C13.845 19.6423 13.8381 19.6476 13.8335 19.6511C13.8312 19.6529 13.8298 19.6551 13.8286 19.656H13.8276C13.5872 19.8384 13.4206 19.9264 13.3159 19.9675V16.6287Z" stroke="white" stroke-opacity="0.6"/>
</g>
<defs>
<filter id="filter0_d_3966_7767" x="0.774902" y="4.14429" width="26.9395" height="21.3557" filterUnits="userSpaceOnUse" color-interpolation-filters="sRGB">
<feFlood flood-opacity="0" result="BackgroundImageFix"/>
<feColorMatrix in="SourceAlpha" type="matrix" values="0 0 0 0 0 0 0 0 0 0 0 0 0 0 0 0 0 0 127 0" result="hardAlpha"/>
<feOffset dy="2"/>
<feGaussianBlur stdDeviation="1.5"/>
<feComposite in2="hardAlpha" operator="out"/>
<feColorMatrix type="matrix" values="0 0 0 0 0.201961 0 0 0 0 0.153902 0 0 0 0 0.153902 0 0 0 0.25 0"/>
<feBlend mode="normal" in2="BackgroundImageFix" result="effect1_dropShadow_3966_7767"/>
<feBlend mode="normal" in="SourceGraphic" in2="effect1_dropShadow_3966_7767" result="shape"/>
</filter>
<linearGradient id="paint0_linear_3966_7767" x1="14" y1="0" x2="14" y2="26" gradientUnits="userSpaceOnUse">
<stop stop-color="#FF9181"/>
<stop offset="1" stop-color="#EA8273"/>
</linearGradient>
<linearGradient id="paint1_linear_3966_7767" x1="14.2447" y1="5.14429" x2="14.2447" y2="20.5" gradientUnits="userSpaceOnUse">
<stop stop-color="white"/>
<stop offset="1" stop-color="#F7DECF"/>
</linearGradient>
</defs>
</svg>
