<svg xmlns="http://www.w3.org/2000/svg" width="20" height="17" viewBox="0 0 20 17" fill="none">
  <g filter="url(#filter0_d_3262_567)">
    <path d="M17.2446 8.3211C17.2446 8.02027 17.0835 7.6651 16.9121 7.42587C15.5826 5.56248 13.2454 5.03962 11.839 4.93653C11.4515 4.5025 9.66205 3.14044 9.66205 3.14044C8.71574 2.42427 8.72085 3.14044 8.72085 3.14044V5.37909C6.17406 6.70541 6.17406 7.40868 5.60196 7.77255C5.02996 8.13633 4.43225 7.17388 3.49691 6.36737C2.56148 5.56103 2.19744 5.82098 2.24947 6.36737C2.28907 6.78067 2.69923 7.68515 2.89695 8.10343C2.93362 8.21654 2.95561 8.40563 2.83984 8.66272C2.62893 9.11462 2.28465 9.90097 2.24947 10.2777C2.19753 10.8234 2.56157 11.0841 3.49691 10.2777C4.43223 9.46981 5.02996 8.5087 5.60204 8.87255C6.17406 9.23641 6.17406 9.93958 8.72085 11.2659V13.5032C8.72085 13.5032 8.71574 14.2208 9.66205 13.5032C9.66205 13.5032 11.4515 12.1418 11.839 11.7085C13.2454 11.6047 15.5833 11.0826 16.912 9.2191C17.0834 8.97848 17.2445 8.62483 17.2445 8.32254V8.32108H17.2446V8.3211ZM14.6553 9.10459C14.2239 9.10459 13.8738 8.75364 13.8738 8.32254C13.8738 7.88994 14.2239 7.54048 14.6553 7.54048C15.0867 7.54048 15.4369 7.88992 15.4369 8.32254C15.4369 8.75364 15.0867 9.10459 14.6553 9.10459Z" fill="#FFFEFC"/>
  </g>
  <defs>
    <filter id="filter0_d_3262_567" x="0.412568" y="1.90611" width="18.6641" height="14.6641" filterUnits="userSpaceOnUse" color-interpolation-filters="sRGB">
      <feFlood flood-opacity="0" result="BackgroundImageFix"/>
      <feColorMatrix in="SourceAlpha" type="matrix" values="0 0 0 0 0 0 0 0 0 0 0 0 0 0 0 0 0 0 127 0" result="hardAlpha"/>
      <feOffset dy="0.916031"/>
      <feGaussianBlur stdDeviation="0.916031"/>
      <feComposite in2="hardAlpha" operator="out"/>
      <feColorMatrix type="matrix" values="0 0 0 0 0 0 0 0 0 0 0 0 0 0 0 0 0 0 0.25 0"/>
      <feBlend mode="normal" in2="BackgroundImageFix" result="effect1_dropShadow_3262_567"/>
      <feBlend mode="normal" in="SourceGraphic" in2="effect1_dropShadow_3262_567" result="shape"/>
    </filter>
  </defs>
</svg>