<svg xmlns="http://www.w3.org/2000/svg" width="18" height="18" viewBox="0 0 18 18" fill="none">
<path d="M14.7526 3.76411C14.748 3.7552 14.7404 3.74822 14.7311 3.74442C13.6589 3.25247 12.5274 2.90168 11.365 2.70081C11.3544 2.69885 11.3435 2.70026 11.3338 2.70486C11.3241 2.70945 11.3161 2.71699 11.3109 2.72641C11.1568 3.00605 11.0169 3.29329 10.8918 3.58703C9.63876 3.39682 8.36416 3.39682 7.11109 3.58703C6.98514 3.29254 6.84303 3.00523 6.68542 2.72641C6.68001 2.7172 6.67196 2.70983 6.66231 2.70527C6.65266 2.7007 6.64185 2.69915 6.63131 2.70081C5.46873 2.90126 4.33716 3.25208 3.26508 3.74445C3.2559 3.74834 3.24816 3.75498 3.24292 3.76346C1.09898 6.96515 0.511673 10.0881 0.799785 13.1724C0.800596 13.18 0.802918 13.1873 0.806614 13.1939C0.81031 13.2006 0.815305 13.2064 0.821301 13.2111C2.0697 14.1354 3.46604 14.841 4.95075 15.2977C4.96121 15.3008 4.97237 15.3007 4.98275 15.2973C4.99312 15.2939 5.0022 15.2874 5.00878 15.2786C5.32766 14.8448 5.61021 14.3853 5.85357 13.905C5.85691 13.8984 5.85882 13.8911 5.85917 13.8838C5.85952 13.8764 5.8583 13.869 5.85559 13.8621C5.85288 13.8553 5.84875 13.849 5.84346 13.8439C5.83817 13.8387 5.83185 13.8347 5.82491 13.8322C5.37934 13.6617 4.94798 13.4562 4.53487 13.2176C4.52737 13.2132 4.52106 13.207 4.51652 13.1995C4.51197 13.1921 4.50933 13.1837 4.50881 13.175C4.5083 13.1663 4.50993 13.1576 4.51357 13.1497C4.51721 13.1418 4.52273 13.1349 4.52967 13.1296C4.61659 13.0647 4.70201 12.9978 4.78586 12.9289C4.79321 12.9229 4.80211 12.919 4.81155 12.9177C4.82099 12.9164 4.8306 12.9178 4.83929 12.9217C7.54573 14.1569 10.4758 14.1569 13.1502 12.9217C13.1589 12.9176 13.1687 12.916 13.1782 12.9171C13.1878 12.9183 13.1969 12.9222 13.2043 12.9283C13.2883 12.9975 13.3739 13.0646 13.4612 13.1296C13.4682 13.1349 13.4737 13.1417 13.4774 13.1496C13.4811 13.1575 13.4828 13.1661 13.4824 13.1748C13.4819 13.1835 13.4793 13.192 13.4748 13.1994C13.4704 13.2069 13.4641 13.2131 13.4566 13.2176C13.0445 13.4582 12.6127 13.6636 12.166 13.8315C12.159 13.8342 12.1527 13.8382 12.1475 13.8435C12.1422 13.8487 12.1381 13.855 12.1355 13.862C12.1328 13.8689 12.1317 13.8763 12.1321 13.8837C12.1325 13.8911 12.1344 13.8984 12.1378 13.905C12.3853 14.3826 12.6674 14.8415 12.982 15.2779C12.9884 15.2868 12.9974 15.2936 13.0078 15.2971C13.0182 15.3006 13.0295 15.3008 13.04 15.2976C14.5274 14.8425 15.9262 14.1368 17.1761 13.2111C17.1822 13.2067 17.1873 13.201 17.191 13.1944C17.1947 13.1878 17.197 13.1806 17.1976 13.1731C17.5426 9.6073 16.6202 6.50992 14.7526 3.76411ZM6.25775 11.2944C5.44291 11.2944 4.77151 10.5466 4.77151 9.62831C4.77151 8.70997 5.42989 7.96215 6.25775 7.96215C7.09208 7.96215 7.75698 8.71647 7.74396 9.62825C7.74396 10.5466 7.08555 11.2944 6.25775 11.2944ZM11.7528 11.2944C10.938 11.2944 10.2666 10.5466 10.2666 9.62831C10.2666 8.70997 10.925 7.96215 11.7528 7.96215C12.5872 7.96215 13.2521 8.71647 13.239 9.62825C13.239 10.5466 12.5872 11.2944 11.7528 11.2944Z" fill="white"/>
</svg>