<svg width="22" height="22" viewBox="0 0 22 22" fill="none" xmlns="http://www.w3.org/2000/svg">
<g filter="url(#filter0_d_3829_2631)">
<path d="M17.1733 9.78124C17.2064 9.52665 17.2277 9.27207 17.2277 9C17.2277 8.72987 17.2025 8.47528 17.1733 8.21876L18.8524 6.90504C19.004 6.78648 19.0448 6.57077 18.9476 6.39585L17.356 3.64208C17.2608 3.4672 17.0451 3.40306 16.8702 3.4672L14.8879 4.26398C14.474 3.94527 14.027 3.68292 13.5431 3.48274L13.2399 1.37222C13.2147 1.17984 13.0495 1.03796 12.8493 1.03796H9.66409C9.46587 1.03796 9.29871 1.18177 9.27347 1.37222L8.97029 3.48274C8.48445 3.68096 8.03942 3.95305 7.62548 4.26398L5.64322 3.46719C5.45861 3.39528 5.25261 3.46719 5.15738 3.6421L3.56577 6.39587C3.46084 6.57077 3.51136 6.78648 3.661 6.90504L5.34009 8.21876C5.30704 8.47334 5.28567 8.7357 5.28567 9C5.28567 9.26429 5.31093 9.52471 5.34009 9.78124L3.65906 11.095C3.50746 11.2135 3.46666 11.4292 3.56383 11.6041L5.15546 14.3579C5.25068 14.5328 5.46641 14.5969 5.6413 14.5328L7.62356 13.736C8.0375 14.0547 8.48447 14.3171 8.96837 14.5173L9.27153 16.6278C9.29679 16.8182 9.462 16.962 9.66216 16.962H12.8474C13.0456 16.962 13.2127 16.8182 13.238 16.6278L13.5411 14.5173C14.027 14.319 14.472 14.0469 14.886 13.736L16.8682 14.5328C17.0528 14.6047 17.2588 14.5328 17.3541 14.3579L18.9457 11.6041C19.0409 11.4292 19.0001 11.2135 18.8505 11.095L17.1733 9.78124ZM11.2577 11.7887C9.72046 11.7887 8.47087 10.5392 8.47087 9.00194C8.47087 7.46473 9.72046 6.21513 11.2577 6.21513C12.7949 6.21513 14.0445 7.46473 14.0445 9.00194C14.0445 10.5392 12.7949 11.7887 11.2577 11.7887Z" fill="url(#paint0_linear_3829_2631)"/>
<path d="M12.7583 1.53796L13.0483 3.55359L13.0884 3.83582L13.3521 3.94519C13.7931 4.12766 14.2019 4.36701 14.5825 4.66003L14.8091 4.83484L15.0747 4.72742L16.9663 3.96667L18.4702 6.56921L16.8647 7.82507L16.645 7.99695L16.6763 8.27527C16.7051 8.52877 16.728 8.75974 16.728 8.99988C16.728 9.24505 16.7083 9.47747 16.6772 9.71667L16.6411 9.9989L16.8647 10.1747L18.4683 11.4305L16.9644 14.0321L15.0728 13.2723L14.811 13.1669L14.5854 13.3358C14.1966 13.6279 13.7888 13.8764 13.3521 14.0546L13.0874 14.163L13.0464 14.4462L12.7563 16.4618H9.75244L9.46338 14.4462L9.42236 14.1639L9.15967 14.0555L8.83447 13.9081C8.51545 13.7499 8.21383 13.5596 7.92822 13.3397L7.70264 13.1659L7.43701 13.2723L5.54443 14.0321L4.04053 11.4305L5.64795 10.1757L5.86865 10.0028L5.83643 9.72449C5.80767 9.47143 5.78564 9.2343 5.78564 8.99988C5.78565 8.76213 5.80446 8.52187 5.83545 8.28308L5.87256 8.00085L5.64795 7.82507L4.04248 6.56921L5.54639 3.96765L7.43896 4.72742L7.70068 4.83289L7.92529 4.66394C8.31416 4.37185 8.72292 4.12436 9.15967 3.94617L9.42432 3.83777L9.46533 3.55359L9.75439 1.53796H12.7583ZM11.2573 5.71472C9.44417 5.71491 7.97125 7.18864 7.97119 9.00183C7.97119 10.8151 9.44413 12.2888 11.2573 12.2889C13.0707 12.2889 14.5444 10.8152 14.5444 9.00183C14.5444 7.18852 13.0706 5.71472 11.2573 5.71472Z" stroke="white" stroke-opacity="0.6"/>
</g>
<defs>
<filter id="filter0_d_3829_2631" x="0.510254" y="0.0379639" width="21.4897" height="21.9241" filterUnits="userSpaceOnUse" color-interpolation-filters="sRGB">
<feFlood flood-opacity="0" result="BackgroundImageFix"/>
<feColorMatrix in="SourceAlpha" type="matrix" values="0 0 0 0 0 0 0 0 0 0 0 0 0 0 0 0 0 0 127 0" result="hardAlpha"/>
<feOffset dy="2"/>
<feGaussianBlur stdDeviation="1.5"/>
<feComposite in2="hardAlpha" operator="out"/>
<feColorMatrix type="matrix" values="0 0 0 0 0.201961 0 0 0 0 0.153902 0 0 0 0 0.153902 0 0 0 0.25 0"/>
<feBlend mode="normal" in2="BackgroundImageFix" result="effect1_dropShadow_3829_2631"/>
<feBlend mode="normal" in="SourceGraphic" in2="effect1_dropShadow_3829_2631" result="shape"/>
</filter>
<linearGradient id="paint0_linear_3829_2631" x1="11.2552" y1="1.03796" x2="11.2552" y2="16.962" gradientUnits="userSpaceOnUse">
<stop stop-color="white"/>
<stop offset="1" stop-color="#F7DECF"/>
</linearGradient>
</defs>
</svg>
