<svg width="333" height="58" viewBox="0 0 333 58" fill="none" xmlns="http://www.w3.org/2000/svg">
<mask id="path-1-inside-1_2997_1587" fill="white">
<path d="M285.836 0.557624C287.53 -0.322081 288.878 -0.245466 289.956 1.39942C291.509 3.7699 293.44 6.00001 296.274 6.00001H307C321.359 6.00001 333 17.6406 333 32C333 46.3594 321.359 58 307 58H26C11.6406 58 0 46.3594 0 32C3.8658e-06 17.6406 11.6406 6.00001 26 6.00001H36.712C39.5493 6.00001 41.4888 3.77262 43.0439 1.39942C44.122 -0.245467 45.4315 -0.322084 47.1641 0.557624C52.3881 3.23131 57.7354 6.00001 63.6039 6.00001H269.457C275.305 6.00001 280.63 3.22204 285.836 0.557624Z"/>
</mask>
<path d="M285.836 0.557624C287.53 -0.322081 288.878 -0.245466 289.956 1.39942C291.509 3.7699 293.44 6.00001 296.274 6.00001H307C321.359 6.00001 333 17.6406 333 32C333 46.3594 321.359 58 307 58H26C11.6406 58 0 46.3594 0 32C3.8658e-06 17.6406 11.6406 6.00001 26 6.00001H36.712C39.5493 6.00001 41.4888 3.77262 43.0439 1.39942C44.122 -0.245467 45.4315 -0.322084 47.1641 0.557624C52.3881 3.23131 57.7354 6.00001 63.6039 6.00001H269.457C275.305 6.00001 280.63 3.22204 285.836 0.557624Z" fill="url(#paint0_linear_2997_1587)"/>
<path d="M333 32H334H333ZM26 58V59V58ZM0 32H-1H0ZM285.836 0.557624L286.297 1.4451C287.059 1.04929 287.587 0.955066 287.961 1.01799C288.293 1.0737 288.685 1.28382 289.12 1.94759L289.956 1.39942L290.792 0.851248C290.149 -0.129863 289.328 -0.7805 288.293 -0.954386C287.3 -1.12107 286.307 -0.81375 285.375 -0.329857L285.836 0.557624ZM296.274 6.00001V7.00001H307V6.00001V5.00001H296.274V6.00001ZM307 6.00001V7.00001C320.807 7.00001 332 18.1929 332 32H333H334C334 17.0883 321.912 5.00001 307 5.00001V6.00001ZM333 32H332C332 45.8071 320.807 57 307 57V58V59C321.912 59 334 46.9117 334 32H333ZM307 58V57H26V58V59H307V58ZM26 58V57C12.1929 57 1 45.8071 1 32H0H-1C-1 46.9117 11.0883 59 26 59V58ZM0 32H1C1 18.1929 12.1929 7.00001 26 7.00001V6.00001V5.00001C11.0883 5.00001 -0.999996 17.0883 -1 32H0ZM26 6.00001V7.00001H36.712V6.00001V5.00001H26V6.00001ZM43.0439 1.39942L43.8803 1.94759C44.3194 1.27773 44.7031 1.0723 45.0253 1.01779C45.3939 0.955448 45.9215 1.04824 46.7113 1.44927L47.1641 0.557624L47.6168 -0.334027C46.674 -0.812696 45.6806 -1.12145 44.6918 -0.954195C43.6566 -0.779101 42.8466 -0.12378 42.2076 0.851248L43.0439 1.39942ZM63.6039 6.00001V7.00001H269.457V6.00001V5.00001H63.6039V6.00001ZM269.457 6.00001V7.00001C275.59 7.00001 281.137 4.08578 286.292 1.44781L285.836 0.557624L285.38 -0.332561C280.123 2.35831 275.019 5.00001 269.457 5.00001V6.00001ZM36.712 6.00001V7.00001C40.1267 7.00001 42.3302 4.31309 43.8804 1.94751L43.0439 1.39942L42.2075 0.851328C40.6474 3.23215 38.9719 5.00001 36.712 5.00001V6.00001ZM47.1641 0.557624L46.7085 1.44781C51.8838 4.09658 57.4511 7.00001 63.6039 7.00001V6.00001V5.00001C58.0197 5.00001 52.8924 2.36604 47.6197 -0.332561L47.1641 0.557624ZM289.956 1.39942L289.12 1.94751C290.666 4.30774 292.861 7.00001 296.274 7.00001V6.00001V5.00001C294.019 5.00001 292.353 3.23205 290.792 0.851328L289.956 1.39942Z" fill="#FF9A8B" mask="url(#path-1-inside-1_2997_1587)"/>
<defs>
<linearGradient id="paint0_linear_2997_1587" x1="166.5" y1="58" x2="166.5" y2="0" gradientUnits="userSpaceOnUse">
<stop stop-color="#EA8273"/>
<stop offset="1" stop-color="#ECA89E"/>
</linearGradient>
</defs>
</svg>
