<svg width="38" height="38" viewBox="0 0 38 38" fill="none" xmlns="http://www.w3.org/2000/svg">
<g id="&#231;&#140;&#171;&#231;&#139;&#151; 1">
<g id="Vector">
<mask id="path-1-inside-1_609_84" fill="white">
<path d="M31.474 7.27993C25.6837 -3.89972 20.4259 3.73201 20.4259 3.73201C19.8269 4.73604 19.0223 3.79892 19.0223 3.79892C17.0204 1.12114 14.4841 1.18809 14.4841 1.18809C9.07376 1.1211 8.11354 6.81138 8.11354 6.81138C1.24834 7.01222 1.25834 15.2806 1.25834 15.2806C0.659412 20.3355 3.72077 24.4265 3.72077 24.4265C7.38132 37.6233 19.0223 36.8025 19.0223 36.8025C32.7274 35.7982 33.6037 24.8529 33.6037 24.8529C36.5987 20.6019 36.7983 15.9828 36.7983 15.9828C36.3325 8.08335 31.474 7.27993 31.474 7.27993Z"/>
</mask>
<path d="M31.474 7.27993C25.6837 -3.89972 20.4259 3.73201 20.4259 3.73201C19.8269 4.73604 19.0223 3.79892 19.0223 3.79892C17.0204 1.12114 14.4841 1.18809 14.4841 1.18809C9.07376 1.1211 8.11354 6.81138 8.11354 6.81138C1.24834 7.01222 1.25834 15.2806 1.25834 15.2806C0.659412 20.3355 3.72077 24.4265 3.72077 24.4265C7.38132 37.6233 19.0223 36.8025 19.0223 36.8025C32.7274 35.7982 33.6037 24.8529 33.6037 24.8529C36.5987 20.6019 36.7983 15.9828 36.7983 15.9828C36.3325 8.08335 31.474 7.27993 31.474 7.27993Z" fill="url(#paint0_linear_609_84)"/>
<path d="M31.474 7.27993L30.586 7.73983L30.8165 8.18478L31.3108 8.26653L31.474 7.27993ZM20.4259 3.73201L19.6024 3.16467L19.5839 3.1916L19.5671 3.21969L20.4259 3.73201ZM19.0223 3.79892L18.2214 4.39769L18.2416 4.42473L18.2636 4.45034L19.0223 3.79892ZM14.4841 1.18809L14.4717 2.18801L14.4911 2.18825L14.5105 2.18774L14.4841 1.18809ZM8.11354 6.81138L8.14278 7.81096L8.96305 7.78696L9.0996 6.97778L8.11354 6.81138ZM1.25834 15.2806L2.25139 15.3983L2.25841 15.339L2.25834 15.2794L1.25834 15.2806ZM3.72077 24.4265L4.68439 24.1592L4.63411 23.9779L4.52142 23.8273L3.72077 24.4265ZM19.0223 36.8025L19.0927 37.8L19.0954 37.7998L19.0223 36.8025ZM33.6037 24.8529L32.7862 24.2769L32.6287 24.5004L32.6069 24.773L33.6037 24.8529ZM36.7983 15.9828L37.7973 16.026L37.7995 15.9749L37.7965 15.924L36.7983 15.9828ZM32.362 6.82002C30.8725 3.94427 29.3592 2.15976 27.8531 1.17276C26.3102 0.161637 24.823 0.0211467 23.5357 0.34356C22.2905 0.655407 21.3066 1.37972 20.6581 1.98086C20.3284 2.28645 20.0707 2.57394 19.8936 2.78726C19.8048 2.89428 19.7355 2.98363 19.6867 3.04857C19.6623 3.08107 19.643 3.10754 19.6289 3.12714C19.6219 3.13695 19.6161 3.14505 19.6117 3.15134C19.6095 3.15448 19.6076 3.15717 19.6061 3.1594C19.6053 3.16051 19.6046 3.16151 19.604 3.16239C19.6037 3.16283 19.6033 3.1634 19.6031 3.16362C19.6028 3.16416 19.6024 3.16467 20.4259 3.73201C21.2494 4.29935 21.2491 4.2998 21.2488 4.30022C21.2487 4.30033 21.2484 4.30073 21.2483 4.30093C21.248 4.30135 21.2478 4.30166 21.2477 4.30185C21.2474 4.30224 21.2474 4.30219 21.2478 4.30171C21.2484 4.30074 21.2503 4.29806 21.2534 4.29377C21.2596 4.28518 21.2705 4.27016 21.286 4.24949C21.3171 4.20809 21.3664 4.14441 21.4326 4.06458C21.5657 3.90421 21.764 3.68281 22.0177 3.44761C22.536 2.96716 23.2285 2.48227 24.0215 2.28364C24.7724 2.09558 25.6853 2.14334 26.7568 2.84554C27.8651 3.57187 29.1803 5.02576 30.586 7.73983L32.362 6.82002ZM19.5671 3.21969C19.5022 3.32845 19.5084 3.26055 19.6371 3.21756C19.7634 3.17537 19.8566 3.20786 19.8662 3.21161C19.8683 3.21248 19.8442 3.20102 19.8056 3.16814C19.79 3.15493 19.7784 3.14355 19.7726 3.1376C19.7699 3.1348 19.769 3.1338 19.7702 3.13515C19.7708 3.13585 19.772 3.13717 19.7738 3.13919C19.7747 3.1402 19.7758 3.14139 19.777 3.14277C19.7776 3.14346 19.7782 3.1442 19.7789 3.14499C19.7792 3.14538 19.7796 3.14578 19.7799 3.1462C19.7801 3.14641 19.7804 3.14674 19.7805 3.14684C19.7808 3.14717 19.7811 3.1475 19.0223 3.79892C18.2636 4.45034 18.2639 4.45068 18.2642 4.45102C18.2643 4.45114 18.2646 4.45148 18.2648 4.45172C18.2652 4.45219 18.2656 4.45268 18.2661 4.45319C18.267 4.4542 18.2679 4.45528 18.2689 4.45642C18.2709 4.45869 18.2731 4.46121 18.2755 4.46396C18.2804 4.46947 18.2862 4.47593 18.2928 4.48324C18.3061 4.49783 18.3231 4.51598 18.3436 4.53685C18.3841 4.57822 18.44 4.63221 18.5093 4.69117C18.6402 4.80262 18.8547 4.9627 19.1329 5.07234C19.4184 5.18487 19.8251 5.26338 20.2708 5.11452C20.7188 4.96486 21.0501 4.63759 21.2847 4.24433L19.5671 3.21969ZM19.8233 3.20014C18.6907 1.6853 17.3859 0.924088 16.3409 0.548324C15.8222 0.361817 15.3719 0.271594 15.0427 0.22809C14.8779 0.206308 14.7427 0.196124 14.6434 0.191515C14.5936 0.189209 14.5528 0.188293 14.5217 0.188025C14.5061 0.187892 14.4929 0.18792 14.4822 0.188019C14.4769 0.188069 14.4721 0.188136 14.4681 0.188209C14.466 0.188245 14.4641 0.188283 14.4624 0.188321C14.4615 0.188341 14.4607 0.18836 14.4599 0.188379C14.4596 0.188388 14.459 0.188402 14.4588 0.188407C14.4583 0.188421 14.4577 0.188435 14.4841 1.18809C14.5105 2.18774 14.51 2.18775 14.5095 2.18777C14.5093 2.18777 14.5088 2.18778 14.5085 2.18779C14.5079 2.1878 14.5073 2.18782 14.5067 2.18783C14.5056 2.18785 14.5047 2.18787 14.5039 2.18789C14.5022 2.18792 14.5012 2.18793 14.5007 2.18793C14.4997 2.18794 14.501 2.18792 14.5045 2.18795C14.5115 2.18801 14.5271 2.18827 14.5506 2.18937C14.5978 2.19156 14.6764 2.19706 14.7806 2.21084C14.9896 2.23847 15.2985 2.29887 15.6641 2.43035C16.3878 2.69056 17.352 3.23476 18.2214 4.39769L19.8233 3.20014ZM14.4965 0.188163C11.3612 0.149347 9.48117 1.80968 8.43072 3.43083C7.9132 4.22951 7.59103 5.02263 7.39788 5.61178C7.30073 5.90807 7.2347 6.15745 7.19229 6.33653C7.17105 6.42619 7.15564 6.49861 7.14516 6.55089C7.13991 6.57704 7.13589 6.59819 7.13299 6.61399C7.13153 6.62189 7.13036 6.62845 7.12944 6.63363C7.12899 6.63622 7.1286 6.63846 7.12827 6.64036C7.1281 6.64131 7.12796 6.64217 7.12783 6.64294C7.12776 6.64332 7.12767 6.64384 7.12764 6.64403C7.12756 6.64452 7.12748 6.64499 8.11354 6.81138C9.0996 6.97778 9.09952 6.9782 9.09946 6.97861C9.09944 6.97871 9.09937 6.9791 9.09934 6.97931C9.09926 6.97973 9.09921 6.98008 9.09916 6.98033C9.09907 6.98085 9.09904 6.98104 9.09906 6.98089C9.09911 6.9806 9.0994 6.979 9.09993 6.97614C9.10098 6.9704 9.10301 6.95961 9.10612 6.9441C9.11235 6.91306 9.12285 6.86329 9.13844 6.79749C9.16967 6.66565 9.22092 6.47099 9.29834 6.23487C9.4543 5.75918 9.71033 5.13392 10.1092 4.5184C10.8914 3.31116 12.1966 2.15984 14.4717 2.18801L14.4965 0.188163ZM8.0843 5.81181C6.15053 5.86838 4.64735 6.50045 3.50613 7.45108C2.37977 8.38932 1.65488 9.59605 1.1859 10.7428C0.716507 11.8905 0.486909 13.0182 0.373247 13.8502C0.31608 14.2686 0.287406 14.6185 0.272993 14.867C0.265777 14.9914 0.262111 15.0909 0.260249 15.1613C0.259318 15.1965 0.258838 15.2244 0.258591 15.2447C0.258468 15.2548 0.258403 15.263 0.25837 15.2692C0.258353 15.2723 0.258344 15.2749 0.25834 15.277C0.258338 15.2781 0.258336 15.279 0.258336 15.2798C0.258336 15.2802 0.258336 15.2807 0.258336 15.2809C0.258336 15.2814 0.258337 15.2818 1.25834 15.2806C2.25834 15.2794 2.25834 15.2798 2.25834 15.2801C2.25834 15.2802 2.25834 15.2805 2.25834 15.2806C2.25834 15.2809 2.25834 15.2811 2.25834 15.2812C2.25834 15.2812 2.25834 15.2809 2.25834 15.28C2.25835 15.2782 2.25838 15.2746 2.25844 15.2691C2.25858 15.258 2.25888 15.2395 2.25955 15.2141C2.26089 15.1633 2.26372 15.0849 2.26964 14.9828C2.28149 14.7784 2.30567 14.4808 2.35484 14.1209C2.45384 13.3963 2.65082 12.4443 3.03707 11.4998C3.42375 10.5544 3.98358 9.65634 4.78618 8.98778C5.57393 8.33159 6.64395 7.8548 8.14278 7.81096L8.0843 5.81181ZM0.265282 15.1629C-0.0610267 17.917 0.610989 20.3823 1.34209 22.1343C1.70929 23.0142 2.09667 23.727 2.39441 24.223C2.54351 24.4713 2.67077 24.6664 2.76272 24.802C2.80871 24.8698 2.84593 24.9229 2.87271 24.9604C2.8861 24.9791 2.89689 24.994 2.90486 25.0049C2.90884 25.0104 2.91213 25.0148 2.91468 25.0183C2.91596 25.02 2.91705 25.0215 2.91796 25.0227C2.91842 25.0233 2.91882 25.0239 2.91919 25.0243C2.91937 25.0246 2.9196 25.0249 2.91969 25.025C2.91992 25.0253 2.92013 25.0256 3.72077 24.4265C4.52142 23.8273 4.52161 23.8276 4.52178 23.8278C4.52183 23.8279 4.52199 23.8281 4.52208 23.8282C4.52226 23.8285 4.52239 23.8286 4.52247 23.8287C4.52264 23.829 4.52263 23.8289 4.52243 23.8287C4.52205 23.8282 4.52095 23.8267 4.51916 23.8242C4.51558 23.8193 4.50925 23.8106 4.50037 23.7982C4.48259 23.7733 4.45463 23.7335 4.41809 23.6796C4.34496 23.5718 4.23772 23.4077 4.10917 23.1936C3.85163 22.7646 3.5111 22.1387 3.18783 21.364C2.53798 19.8068 1.97877 17.6991 2.25139 15.3983L0.265282 15.1629ZM2.75716 24.6938C4.67487 31.6074 8.72594 34.928 12.3501 36.4823C14.1439 37.2516 15.8128 37.5808 17.0344 37.7183C17.6463 37.7871 18.1495 37.8083 18.5048 37.8119C18.6825 37.8137 18.8236 37.8112 18.9231 37.808C18.9728 37.8063 19.0123 37.8046 19.0407 37.8031C19.055 37.8024 19.0665 37.8017 19.0751 37.8012C19.0795 37.8009 19.0831 37.8007 19.086 37.8005C19.0875 37.8004 19.0888 37.8003 19.0899 37.8002C19.0904 37.8002 19.0911 37.8001 19.0914 37.8001C19.0921 37.8001 19.0927 37.8 19.0223 36.8025C18.952 35.805 18.9525 35.8049 18.953 35.8049C18.9531 35.8049 18.9535 35.8049 18.9537 35.8048C18.9541 35.8048 18.9543 35.8048 18.9544 35.8048C18.9545 35.8048 18.9539 35.8048 18.9526 35.8049C18.9501 35.8051 18.9449 35.8054 18.9369 35.8058C18.9211 35.8066 18.8947 35.8078 18.8584 35.809C18.7856 35.8114 18.6729 35.8135 18.5252 35.812C18.2296 35.809 17.7947 35.7912 17.2581 35.7308C16.1826 35.6098 14.7125 35.3193 13.1384 34.6442C10.0269 33.3098 6.42722 30.4423 4.68439 24.1592L2.75716 24.6938ZM19.0954 37.7998C26.2554 37.2751 30.1785 34.125 32.2812 31.0106C33.3194 29.4729 33.8963 27.9712 34.2145 26.8523C34.3739 26.2919 34.4693 25.8242 34.5254 25.4912C34.5535 25.3246 34.5717 25.1913 34.5832 25.0966C34.589 25.0492 34.5931 25.0114 34.5958 24.9839C34.5972 24.9701 34.5982 24.9589 34.599 24.9504C34.5994 24.9461 34.5997 24.9425 34.6 24.9395C34.6001 24.938 34.6002 24.9367 34.6003 24.9356C34.6003 24.935 34.6004 24.9343 34.6004 24.934C34.6005 24.9333 34.6005 24.9327 33.6037 24.8529C32.6069 24.773 32.607 24.7725 32.607 24.772C32.607 24.7718 32.607 24.7714 32.6071 24.7711C32.6071 24.7707 32.6071 24.7703 32.6071 24.7702C32.6072 24.7699 32.6071 24.7702 32.607 24.7712C32.6069 24.7732 32.6065 24.7777 32.6058 24.7847C32.6044 24.7986 32.6018 24.8224 32.5978 24.8555C32.5898 24.9216 32.5759 25.0244 32.5532 25.1591C32.5078 25.4286 32.4277 25.8238 32.2908 26.3052C32.0164 27.27 31.5177 28.5673 30.6236 29.8915C28.8619 32.5009 25.4943 35.3256 18.9493 35.8052L19.0954 37.7998ZM34.4212 25.4288C36.0088 23.1754 36.8492 20.8352 37.2939 19.0678C37.5168 18.1818 37.642 17.433 37.7118 16.901C37.7467 16.6348 37.7678 16.4223 37.7803 16.2733C37.7866 16.1988 37.7907 16.1401 37.7933 16.0985C37.7946 16.0777 37.7956 16.0611 37.7962 16.049C37.7965 16.0429 37.7968 16.038 37.797 16.0341C37.7971 16.0322 37.7971 16.0306 37.7972 16.0292C37.7972 16.0285 37.7972 16.0279 37.7973 16.0274C37.7973 16.0271 37.7973 16.0268 37.7973 16.0266C37.7973 16.0263 37.7973 16.026 36.7983 15.9828C35.7992 15.9397 35.7992 15.9394 35.7992 15.9391C35.7992 15.9391 35.7992 15.9388 35.7992 15.9387C35.7992 15.9384 35.7993 15.9382 35.7993 15.9381C35.7993 15.9379 35.7993 15.9379 35.7993 15.9383C35.7992 15.9389 35.7991 15.9406 35.799 15.9434C35.7987 15.949 35.7981 15.9589 35.7973 15.973C35.7955 16.0011 35.7924 16.0458 35.7873 16.1059C35.7773 16.2261 35.7594 16.4077 35.7288 16.6409C35.6675 17.1079 35.5557 17.7795 35.3544 18.5797C34.9505 20.1846 34.1936 22.2794 32.7862 24.2769L34.4212 25.4288ZM37.7965 15.924C37.5508 11.7556 36.1303 9.32574 34.6439 7.9381C33.911 7.2539 33.1875 6.84732 32.635 6.61005C32.359 6.49149 32.1251 6.41495 31.9529 6.36681C31.8668 6.34272 31.7958 6.32568 31.7425 6.314C31.7158 6.30816 31.6935 6.30366 31.6758 6.30028C31.667 6.29859 31.6593 6.29719 31.6529 6.29604C31.6496 6.29546 31.6467 6.29495 31.6441 6.2945C31.6428 6.29427 31.6415 6.29406 31.6404 6.29387C31.6398 6.29377 31.639 6.29363 31.6387 6.29359C31.6379 6.29345 31.6371 6.29332 31.474 7.27993C31.3108 8.26653 31.3101 8.26641 31.3094 8.26629C31.3092 8.26625 31.3085 8.26613 31.308 8.26606C31.3072 8.26591 31.3064 8.26578 31.3056 8.26565C31.3042 8.26541 31.303 8.2652 31.3021 8.26504C31.3003 8.26472 31.2997 8.26459 31.3 8.26466C31.3008 8.26481 31.3058 8.26578 31.3149 8.26776C31.3329 8.27171 31.3668 8.27964 31.4144 8.29294C31.5097 8.3196 31.6591 8.36754 31.8458 8.44773C32.2188 8.60796 32.7391 8.89595 33.279 9.40004C34.3384 10.389 35.58 12.3105 35.8 16.0417L37.7965 15.924Z" fill="url(#paint1_linear_609_84)" mask="url(#path-1-inside-1_609_84)"/>
</g>
<path id="Vector_2" d="M23.4802 7.22266C24.763 7.22266 25.8031 8.61818 25.8031 10.34C25.8031 12.0614 24.763 13.4574 23.4802 13.4574C22.1972 13.4574 21.1573 12.0614 21.1573 10.34C21.1575 8.61821 22.1974 7.22266 23.4802 7.22266ZM15.5531 7.22266C16.8361 7.22266 17.8762 8.61818 17.8762 10.34C17.8762 12.0614 16.8362 13.4574 15.5531 13.4574C14.2707 13.4574 13.231 12.0614 13.231 10.34C13.231 8.61821 14.2707 7.22266 15.5531 7.22266ZM9.90972 18.5258C8.6267 18.5258 7.58691 17.1303 7.58691 15.4086C7.58691 13.6867 8.6267 12.2911 9.90972 12.2911C11.1925 12.2911 12.2325 13.6867 12.2325 15.4086C12.2325 17.1303 11.1925 18.5258 9.90972 18.5258ZM25.6996 28.7354C24.4744 29.4825 22.8372 29.2343 21.3064 28.2416C20.3532 27.8219 18.7704 27.3947 17.1354 28.1249C16.8341 28.332 16.5287 28.511 16.222 28.6587C14.9181 29.2881 13.5974 29.3631 12.5674 28.7354C10.5028 27.476 10.3884 23.8693 12.3118 20.6789C12.8167 19.8416 13.4115 19.116 14.0524 18.5241L14.0581 18.5189L14.0597 18.5167L14.0625 18.5151L14.064 18.5135C15.0241 17.6298 16.0855 17.0452 17.0975 16.8341C18.3711 16.4411 19.9547 16.306 21.676 16.9692C23.2187 17.4703 24.8166 18.7897 25.9554 20.6789C27.8787 23.8693 27.7642 27.476 25.6996 28.7354ZM28.6771 18.5242C27.3947 18.5242 26.3543 17.1286 26.3543 15.4068C26.3543 13.685 27.3946 12.2896 28.6771 12.2896C29.9599 12.2896 30.9999 13.6851 30.9999 15.4069C30.9999 17.1287 29.9599 18.5242 28.6771 18.5242Z" fill="white"/>
</g>
<defs>
<linearGradient id="paint0_linear_609_84" x1="18.9895" y1="1.1875" x2="18.9895" y2="36.8125" gradientUnits="userSpaceOnUse">
<stop stop-color="#D46EFF"/>
<stop offset="1" stop-color="#8B4DFF"/>
</linearGradient>
<linearGradient id="paint1_linear_609_84" x1="18.9895" y1="1.1875" x2="18.9895" y2="36.8125" gradientUnits="userSpaceOnUse">
<stop stop-color="#FFA7EA"/>
<stop offset="1" stop-color="#BA79FF" stop-opacity="0.2"/>
</linearGradient>
</defs>
</svg>
