<svg width="107" height="75" viewBox="0 0 107 75" fill="none" xmlns="http://www.w3.org/2000/svg">
<path d="M103.003 27.1399C102.941 27.262 103.003 27.2009 103.003 27.1399C103.987 19.8144 100.666 4.85808 98.9443 2.2331C97.2224 -0.391878 95.0701 -0.51397 92.3644 0.890089C90.3351 1.92787 85.231 5.22436 80.1885 10.108C72.2557 7.23888 63.1546 5.52959 53.5 5.52959C43.8454 5.52959 34.7443 7.17783 26.873 10.108C21.769 5.22436 16.6649 1.92787 14.6356 0.890089C11.8684 -0.51397 9.77759 -0.391878 8.05575 2.2331C6.33391 4.85808 2.95172 19.8144 3.99713 27.0788C3.99713 27.1399 3.99713 27.2009 3.99713 27.0788C1.41437 31.1689 0 35.6253 0 40.2648C0 59.4333 23.9213 75 53.5 75C83.0172 75 107 59.4333 107 40.2648C106.938 35.6253 105.524 31.1689 103.003 27.1399Z" fill="white"/>
</svg>
