<svg width="34" height="34" viewBox="0 0 34 34" fill="none" xmlns="http://www.w3.org/2000/svg">
<g id="gold (2) 1" clip-path="url(#clip0_609_91)">
<path id="Vector" d="M17 0C7.61135 0 0 7.61135 0 17C0 26.3886 7.61135 34 17 34C26.3886 34 34 26.3886 34 17C34 7.61135 26.3886 0 17 0Z" fill="#FFF4DC"/>
<path id="Vector_2" d="M17.0004 2.78223C9.15723 2.78223 2.78223 9.15723 2.78223 17.0004C2.78223 24.8436 9.15723 31.2186 17.0004 31.2186C24.8436 31.2186 31.2186 24.8436 31.2186 17.0004C31.2186 9.15723 24.8436 2.78223 17.0004 2.78223ZM22.989 19.3958C24.0322 24.8822 21.9845 26.3118 16.9231 23.6845C11.7458 26.505 9.7754 25.114 10.9345 19.589C6.72314 15.8413 7.53452 13.5618 13.33 12.7504C15.88 7.6504 18.3527 7.61175 20.7868 12.6345C26.5436 13.2527 27.2777 15.4936 22.989 19.3958Z" fill="#FFB300"/>
<path id="Vector_3" d="M22.9889 19.3951C24.0321 24.8815 21.9843 26.3111 16.923 23.6838C11.7457 26.5043 9.77525 25.1134 10.9343 19.5884C6.72299 15.8406 7.53437 13.5611 13.3298 12.7497C15.8798 7.64971 18.3525 7.61106 20.7866 12.6338C26.5434 13.252 27.2775 15.4929 22.9889 19.3951Z" fill="#FFFDCE"/>
</g>
<defs>
<clipPath id="clip0_609_91">
<rect width="34" height="34" fill="white"/>
</clipPath>
</defs>
</svg>
