<svg width="28" height="24" viewBox="0 0 28 24" fill="none" xmlns="http://www.w3.org/2000/svg">
<path id="Icon" d="M10.15 23.75C9.65995 23.75 9.41493 23.75 9.22776 23.6546C9.06312 23.5707 8.92926 23.4369 8.84537 23.2722C8.75 23.0851 8.75 22.84 8.75 22.35V15.1C8.75 14.5399 8.75 14.2599 8.64101 14.046C8.54513 13.8578 8.39215 13.7049 8.20399 13.609C7.99008 13.5 7.71005 13.5 7.15 13.5H3.03101C1.70682 13.5 1.04472 13.5 0.760345 13.2466C0.513969 13.027 0.39177 12.7001 0.433758 12.3728C0.482223 11.995 0.98202 11.5607 1.98161 10.6922L11.9012 2.07354C12.6453 1.42705 13.0173 1.10381 13.4355 0.980772C13.804 0.872351 14.196 0.872351 14.5645 0.980772C14.9827 1.10381 15.3547 1.42705 16.0988 2.07354L26.0184 10.6922C27.018 11.5607 27.5178 11.995 27.5662 12.3728C27.6082 12.7001 27.486 13.027 27.2397 13.2466C26.9553 13.5 26.2932 13.5 24.969 13.5H20.85C20.2899 13.5 20.0099 13.5 19.796 13.609C19.6078 13.7049 19.4549 13.8578 19.359 14.046C19.25 14.2599 19.25 14.5399 19.25 15.1V22.35C19.25 22.84 19.25 23.0851 19.1546 23.2722C19.0707 23.4369 18.9369 23.5707 18.7722 23.6546C18.5851 23.75 18.34 23.75 17.85 23.75H10.15Z" fill="white"/>
</svg>
