<svg width="56" height="52" viewBox="0 0 56 52" fill="none" xmlns="http://www.w3.org/2000/svg">
<g id="Vector" filter="url(#filter0_di_607_79)">
<path d="M34.5723 5.5C41.5364 5.5 46 10.6988 46 17.6956C46 23.1252 40.7224 29.1049 30.3242 35.8239C29.6414 36.2641 28.8306 36.5 28 36.5C27.1694 36.5 26.3586 36.2641 25.6757 35.8239C15.2776 29.1049 10 23.1252 10 17.6956C10 10.6988 14.4635 5.5 21.4277 5.5C23.9428 5.5 25.6487 6.31815 28 8.17438C30.3517 6.31857 32.0572 5.5 34.5723 5.5Z" fill="#FF0066"/>
<path d="M27.6902 8.56683L27.9999 8.81137L28.3097 8.56689C30.6127 6.74951 32.2113 6 34.5723 6C37.9226 6 40.6426 7.24689 42.5286 9.31124C44.4187 11.3801 45.5 14.3028 45.5 17.6956C45.5 20.2428 44.2617 22.9825 41.684 25.9482C39.1083 28.9118 35.2327 32.0569 30.0529 35.404C29.4528 35.7907 28.7366 36 28 36C27.2634 36 26.5472 35.7907 25.9471 35.404C20.7673 32.0569 16.8917 28.9118 14.3159 25.9482C11.7383 22.9825 10.5 20.2428 10.5 17.6956C10.5 14.3028 11.5813 11.3801 13.4714 9.31124C15.3574 7.24689 18.0774 6 21.4277 6C23.7888 6 25.3878 6.74915 27.6902 8.56683Z" stroke="url(#paint0_linear_607_79)" stroke-opacity="0.4"/>
</g>
<defs>
<filter id="filter0_di_607_79" x="0.238282" y="0.944532" width="55.5234" height="50.5234" filterUnits="userSpaceOnUse" color-interpolation-filters="sRGB">
<feFlood flood-opacity="0" result="BackgroundImageFix"/>
<feColorMatrix in="SourceAlpha" type="matrix" values="0 0 0 0 0 0 0 0 0 0 0 0 0 0 0 0 0 0 127 0" result="hardAlpha"/>
<feOffset dy="5.20625"/>
<feGaussianBlur stdDeviation="4.88086"/>
<feComposite in2="hardAlpha" operator="out"/>
<feColorMatrix type="matrix" values="0 0 0 0 1 0 0 0 0 0 0 0 0 0 0.0166667 0 0 0 0.25 0"/>
<feBlend mode="normal" in2="BackgroundImageFix" result="effect1_dropShadow_607_79"/>
<feBlend mode="normal" in="SourceGraphic" in2="effect1_dropShadow_607_79" result="shape"/>
<feColorMatrix in="SourceAlpha" type="matrix" values="0 0 0 0 0 0 0 0 0 0 0 0 0 0 0 0 0 0 127 0" result="hardAlpha"/>
<feOffset dy="2.60312"/>
<feGaussianBlur stdDeviation="5.20625"/>
<feComposite in2="hardAlpha" operator="arithmetic" k2="-1" k3="1"/>
<feColorMatrix type="matrix" values="0 0 0 0 1 0 0 0 0 1 0 0 0 0 1 0 0 0 0.7 0"/>
<feBlend mode="normal" in2="shape" result="effect2_innerShadow_607_79"/>
</filter>
<linearGradient id="paint0_linear_607_79" x1="28" y1="5.5" x2="28" y2="36.5" gradientUnits="userSpaceOnUse">
<stop stop-color="white" stop-opacity="0.8"/>
<stop offset="1" stop-color="white" stop-opacity="0.2"/>
</linearGradient>
</defs>
</svg>
