<svg xmlns="http://www.w3.org/2000/svg" width="54" height="50" viewBox="0 0 54 50" fill="none">
  <g filter="url(#filter0_di_1357_4072)">
    <path d="M33.2071 5C39.7844 5 44 10.0311 44 16.8022C44 22.0567 39.0156 27.8434 29.1951 34.3457C28.5502 34.7718 27.7844 35 27 35C26.2156 35 25.4498 34.7718 24.8049 34.3457C14.9844 27.8434 10 22.0567 10 16.8022C10 10.0311 14.2156 5 20.7929 5C23.1682 5 24.7794 5.79176 27 7.58811C29.221 5.79216 30.8318 5 33.2071 5Z" fill="#FF0066"/>
    <path d="M26.6855 7.97685L26.9999 8.23117L27.3144 7.97691C29.4875 6.21973 30.9897 5.5 33.2071 5.5C36.3598 5.5 38.92 6.70177 40.6968 8.69468C42.4786 10.6931 43.5 13.5189 43.5 16.8022C43.5 19.2659 42.3312 21.9151 39.8989 24.7826C37.4681 27.6484 33.8099 30.6906 28.9192 33.9288C28.3574 34.2998 27.6879 34.5 27 34.5C26.3121 34.5 25.6426 34.2998 25.0808 33.9288C20.1901 30.6906 16.5319 27.6484 14.1011 24.7826C11.6688 21.9151 10.5 19.2659 10.5 16.8022C10.5 13.5189 11.5214 10.6931 13.3032 8.69468C15.08 6.70177 17.6402 5.5 20.7929 5.5C23.0103 5.5 24.513 6.21938 26.6855 7.97685Z" stroke="url(#paint0_linear_1357_4072)" stroke-opacity="0.4"/>
  </g>
  <defs>
    <filter id="filter0_di_1357_4072" x="0.238282" y="0.444532" width="53.5234" height="49.5234" filterUnits="userSpaceOnUse" color-interpolation-filters="sRGB">
      <feFlood flood-opacity="0" result="BackgroundImageFix"/>
      <feColorMatrix in="SourceAlpha" type="matrix" values="0 0 0 0 0 0 0 0 0 0 0 0 0 0 0 0 0 0 127 0" result="hardAlpha"/>
      <feOffset dy="5.20625"/>
      <feGaussianBlur stdDeviation="4.88086"/>
      <feComposite in2="hardAlpha" operator="out"/>
      <feColorMatrix type="matrix" values="0 0 0 0 1 0 0 0 0 0 0 0 0 0 0.0166667 0 0 0 0.25 0"/>
      <feBlend mode="normal" in2="BackgroundImageFix" result="effect1_dropShadow_1357_4072"/>
      <feBlend mode="normal" in="SourceGraphic" in2="effect1_dropShadow_1357_4072" result="shape"/>
      <feColorMatrix in="SourceAlpha" type="matrix" values="0 0 0 0 0 0 0 0 0 0 0 0 0 0 0 0 0 0 127 0" result="hardAlpha"/>
      <feOffset dy="2.60312"/>
      <feGaussianBlur stdDeviation="5.20625"/>
      <feComposite in2="hardAlpha" operator="arithmetic" k2="-1" k3="1"/>
      <feColorMatrix type="matrix" values="0 0 0 0 1 0 0 0 0 1 0 0 0 0 1 0 0 0 0.7 0"/>
      <feBlend mode="normal" in2="shape" result="effect2_innerShadow_1357_4072"/>
    </filter>
    <linearGradient id="paint0_linear_1357_4072" x1="27" y1="5" x2="27" y2="35" gradientUnits="userSpaceOnUse">
      <stop stop-color="white" stop-opacity="0.8"/>
      <stop offset="1" stop-color="white" stop-opacity="0.2"/>
    </linearGradient>
  </defs>
</svg>