<svg width="60" height="61" viewBox="0 0 60 61" fill="none" xmlns="http://www.w3.org/2000/svg">
<g filter="url(#filter0_d_2880_8697)">
<circle cx="30" cy="30" r="16" fill="#ECA89E"/>
<circle cx="30" cy="30" r="15.5" stroke="#F5A397"/>
</g>
<path d="M32.8612 23C33.7379 23 34.4486 23.9538 34.4486 25.1306C34.4486 26.307 33.7379 27.2611 32.8612 27.2611C31.9844 27.2611 31.2738 26.307 31.2738 25.1306C31.2739 23.9538 31.9845 23 32.8612 23ZM27.444 23C28.3208 23 29.0315 23.9538 29.0315 25.1306C29.0315 26.307 28.3208 27.2611 27.444 27.2611C26.5676 27.2611 25.857 26.307 25.857 25.1306C25.857 23.9538 26.5676 23 27.444 23ZM23.5874 30.7251C22.7106 30.7251 22 29.7713 22 28.5946C22 27.4178 22.7106 26.464 23.5874 26.464C24.464 26.464 25.1747 27.4178 25.1747 28.5946C25.1747 29.7714 24.464 30.7251 23.5874 30.7251ZM34.3779 37.7028C33.5406 38.2134 32.4218 38.0438 31.3757 37.3653C30.7243 37.0784 29.6426 36.7865 28.5252 37.2856C28.3193 37.4271 28.1106 37.5494 27.9011 37.6503C27.01 38.0806 26.1075 38.1318 25.4035 37.7028C23.9927 36.842 23.9145 34.377 25.2289 32.1966C25.5739 31.6243 25.9804 31.1285 26.4184 30.7239L26.4223 30.7204L26.4234 30.7189L26.4253 30.7177L26.4263 30.7167C27.0824 30.1127 27.8078 29.7132 28.4994 29.5689C29.3697 29.3003 30.4519 29.208 31.6283 29.6612C32.6825 30.0037 33.7745 30.9054 34.5527 32.1966C35.867 34.3771 35.7888 36.842 34.3779 37.7028ZM36.4126 30.724C35.5363 30.724 34.8253 29.7702 34.8253 28.5934C34.8253 27.4167 35.5362 26.463 36.4126 26.463C37.2893 26.463 38 27.4167 38 28.5935C38 29.7702 37.2893 30.724 36.4126 30.724Z" fill="#F4EFEC"/>
<defs>
<filter id="filter0_d_2880_8697" x="0" y="1" width="60" height="60" filterUnits="userSpaceOnUse" color-interpolation-filters="sRGB">
<feFlood flood-opacity="0" result="BackgroundImageFix"/>
<feColorMatrix in="SourceAlpha" type="matrix" values="0 0 0 0 0 0 0 0 0 0 0 0 0 0 0 0 0 0 127 0" result="hardAlpha"/>
<feOffset dy="1"/>
<feGaussianBlur stdDeviation="7"/>
<feComposite in2="hardAlpha" operator="out"/>
<feColorMatrix type="matrix" values="0 0 0 0 0.834417 0 0 0 0 0.561261 0 0 0 0 0.521091 0 0 0 1 0"/>
<feBlend mode="normal" in2="BackgroundImageFix" result="effect1_dropShadow_2880_8697"/>
<feBlend mode="normal" in="SourceGraphic" in2="effect1_dropShadow_2880_8697" result="shape"/>
</filter>
</defs>
</svg>
