<svg width="36" height="36" viewBox="0 0 36 36" fill="none" xmlns="http://www.w3.org/2000/svg">
<path d="M28.0798 32.3494C28.0793 32.7309 27.9273 33.0966 27.6573 33.3662C27.3874 33.6358 27.0214 33.7873 26.6399 33.7873H3.59794C3.21639 33.7873 2.85044 33.6358 2.58045 33.3662C2.31046 33.0966 2.1585 32.7309 2.15795 32.3494V20.13C2.15795 19.7481 2.30966 19.3818 2.57971 19.1118C2.84976 18.8417 3.21603 18.69 3.59794 18.69H15.8399V16.5351H2.15895C0.966834 16.5351 0 17.4999 0 18.6911V33.7873C0 34.9794 0.966834 35.9442 2.15999 35.9442H28.0798C29.273 35.9442 30.2398 34.9794 30.2398 33.7873V30.9125H28.0798V32.3494Z" fill="#E96959" fill-opacity="0.5"/>
<path d="M33.84 0H18.72C17.5269 0 16.5601 0.966835 16.5601 2.15791V28.0366C16.5601 29.2287 17.5269 30.1935 18.72 30.1935H33.84C35.0331 30.1935 35.9999 29.2287 35.9999 28.0366V2.15787C35.9999 0.965754 35.0331 0.000960078 33.84 0.000960078V0ZM33.84 26.5987C33.8397 26.7878 33.8022 26.975 33.7296 27.1496C33.657 27.3242 33.5507 27.4828 33.4168 27.6163C33.2829 27.7498 33.124 27.8557 32.9491 27.9278C32.7743 27.9999 32.587 28.0369 32.3979 28.0366H20.16C19.365 28.0366 18.72 27.3938 18.72 26.5997V3.59586C18.72 2.80178 19.3639 2.15791 20.16 2.15791H32.4C33.195 2.15791 33.842 2.80178 33.842 3.59586L33.84 26.5997V26.5987Z" fill="#E96959"/>
<path d="M11.5977 7.39272L10.6658 5.34793C7.50811 7.07284 4.34636 9.94254 3.26425 12.5736L3.25809 12.5726C3.18114 12.7948 3.03687 12.9875 2.84535 13.1239C2.65382 13.2603 2.42455 13.3336 2.18942 13.3337C1.55994 13.3316 1.05078 12.8215 1.05078 12.194C1.05078 12.0747 1.07442 11.9616 1.10942 11.8536L1.10734 11.8536C1.145 11.7338 1.20236 11.6212 1.27706 11.5203C2.97421 8.19084 6.07019 5.04445 9.70617 3.24142L8.61382 0.841797L15.3375 1.72431L11.5977 7.39168L11.5977 7.39272Z" fill="#E96959"/>
</svg>
