<svg width="24" height="22" viewBox="0 0 24 22" fill="none" xmlns="http://www.w3.org/2000/svg">
<path id="Vector" opacity="0.6" d="M15.8933 0.0261841C17.1761 0.0261841 18.2161 1.42171 18.2161 3.14356C18.2161 4.86491 17.1761 6.26094 15.8933 6.26094C14.6103 6.26094 13.5704 4.86488 13.5704 3.14356C13.5705 1.42174 14.6105 0.0261841 15.8933 0.0261841ZM7.96621 0.0261841C9.24923 0.0261841 10.2892 1.42171 10.2892 3.14356C10.2892 4.86491 9.24929 6.26094 7.96621 6.26094C6.68383 6.26094 5.64405 4.86488 5.64405 3.14356C5.64405 1.42174 6.68383 0.0261841 7.96621 0.0261841ZM2.32281 11.3293C1.03978 11.3293 0 9.93385 0 8.21208C0 6.49026 1.03978 5.09462 2.32281 5.09462C3.60559 5.09462 4.64555 6.49023 4.64555 8.21208C4.64555 9.93388 3.60559 11.3293 2.32281 11.3293ZM18.1127 21.5389C16.8875 22.286 15.2503 22.0378 13.7195 21.0452C12.7663 20.6254 11.1835 20.1982 9.54845 20.9285C9.24714 21.1355 8.94175 21.3145 8.63507 21.4622C7.33116 22.0917 6.01049 22.1666 4.98045 21.5389C2.9159 20.2795 2.80145 16.6728 4.7249 13.4825C5.22977 12.6451 5.82463 11.9196 6.46544 11.3277L6.47123 11.3225L6.47281 11.3203L6.47554 11.3186L6.47708 11.3171C7.43714 10.4333 8.4986 9.8487 9.51063 9.63758C10.7842 9.24461 12.3678 9.10954 14.0891 9.77272C15.6318 10.2738 17.2297 11.5932 18.3684 13.4824C20.2918 16.6728 20.1773 20.2795 18.1127 21.5389ZM21.0902 11.3278C19.8078 11.3278 18.7674 9.93215 18.7674 8.21036C18.7674 6.48857 19.8077 5.0931 21.0902 5.0931C22.373 5.0931 23.413 6.4886 23.413 8.21042C23.413 9.93224 22.373 11.3278 21.0902 11.3278Z" fill="white"/>
</svg>
