<svg width="210" height="260" viewBox="0 0 210 260" fill="none" xmlns="http://www.w3.org/2000/svg">
<g filter="url(#filter0_dd_2878_12589)">
<mask id="path-1-inside-1_2878_12589" fill="white">
<path d="M149.456 20.5576C151.15 19.6779 152.498 19.7545 153.576 21.3994C153.93 21.9393 154.39 23.3119 154.829 25.0743C154.963 25.6142 155.444 26 156 26C172.569 26 186 39.4315 186 56V202C186 218.569 172.569 232 156 232H54C37.4315 232 24 218.569 24 202V56C24 39.4315 37.4315 26 54 26C54.6909 26 55.2873 25.5216 55.4593 24.8525C55.8848 23.1978 56.3251 21.9167 56.6641 21.3994C57.7421 19.7546 59.0516 19.678 60.7842 20.5576C64.3313 22.373 67.9272 24.2497 71.6909 25.353C73.482 25.8781 75.3576 26 77.224 26H133.061C134.938 26 136.826 25.8769 138.626 25.3437C142.362 24.2372 145.929 22.3626 149.456 20.5576Z"/>
</mask>
<path d="M149.456 20.5576C151.15 19.6779 152.498 19.7545 153.576 21.3994C153.93 21.9393 154.39 23.3119 154.829 25.0743C154.963 25.6142 155.444 26 156 26C172.569 26 186 39.4315 186 56V202C186 218.569 172.569 232 156 232H54C37.4315 232 24 218.569 24 202V56C24 39.4315 37.4315 26 54 26C54.6909 26 55.2873 25.5216 55.4593 24.8525C55.8848 23.1978 56.3251 21.9167 56.6641 21.3994C57.7421 19.7546 59.0516 19.678 60.7842 20.5576C64.3313 22.373 67.9272 24.2497 71.6909 25.353C73.482 25.8781 75.3576 26 77.224 26H133.061C134.938 26 136.826 25.8769 138.626 25.3437C142.362 24.2372 145.929 22.3626 149.456 20.5576Z" fill="url(#paint0_linear_2878_12589)"/>
<path d="M149.456 20.5576L149.912 21.4478L149.917 21.4451L149.456 20.5576ZM153.576 21.3994L154.413 20.8513L154.413 20.8512L153.576 21.3994ZM186 56H187V56L186 56ZM54 232V233V232ZM24 56L23 56V56H24ZM56.6641 21.3994L55.8277 20.8512L55.8276 20.8513L56.6641 21.3994ZM60.7842 20.5576L61.2398 19.6674L61.2369 19.666L60.7842 20.5576ZM71.6909 25.353L71.4096 26.3127L71.6909 25.353ZM154.829 25.0743L153.858 25.3157L154.829 25.0743ZM149.456 20.5576L149.917 21.4451C150.679 21.0493 151.207 20.955 151.581 21.018C151.913 21.0737 152.305 21.2838 152.74 21.9476L153.576 21.3994L154.413 20.8512C153.77 19.8701 152.948 19.2195 151.913 19.0456C150.92 18.8789 149.927 19.1862 148.995 19.6701L149.456 20.5576ZM153.576 21.3994L152.74 21.9475C152.842 22.1033 153.012 22.4767 153.224 23.0998C153.426 23.697 153.644 24.4526 153.858 25.3157L154.829 25.0743L155.799 24.8329C155.576 23.9335 155.343 23.1217 155.118 22.457C154.901 21.8183 154.664 21.2354 154.413 20.8513L153.576 21.3994ZM156 26V27C172.016 27 185 39.9838 185 56H186L187 56C187 38.8792 173.121 25 156 25V26ZM186 56H185V202H186H187V56H186ZM186 202H185C185 218.016 172.016 231 156 231V232V233C173.121 233 187 219.121 187 202H186ZM156 232V231H54V232V233H156V232ZM54 232V231C37.9837 231 25 218.016 25 202H24H23C23 219.121 36.8792 233 54 233V232ZM24 202H25V56H24H23V202H24ZM24 56H25C25 39.9838 37.9838 27 54 27V26V25C36.8792 25 23 38.8792 23 56L24 56ZM55.4593 24.8525L56.4278 25.1015C56.6359 24.2921 56.8447 23.586 57.0387 23.0276C57.241 22.4455 57.4031 22.0961 57.5005 21.9475L56.6641 21.3994L55.8276 20.8513C55.5861 21.22 55.3585 21.7698 55.1496 22.3712C54.9323 22.9964 54.7082 23.7582 54.4908 24.6034L55.4593 24.8525ZM56.6641 21.3994L57.5004 21.9476C57.9394 21.2778 58.3232 21.0723 58.6455 21.0178C59.0141 20.9555 59.5416 21.0483 60.3315 21.4493L60.7842 20.5576L61.2369 19.666C60.2942 19.1873 59.3007 18.8786 58.3119 19.0458C57.2768 19.2209 56.4668 19.8762 55.8277 20.8512L56.6641 21.3994ZM60.7842 20.5576L60.3286 21.4478C63.8522 23.2512 67.5373 25.1775 71.4096 26.3127L71.6909 25.353L71.9722 24.3934C68.317 23.3219 64.8103 21.4949 61.2398 19.6674L60.7842 20.5576ZM77.224 26V27H133.061V26V25H77.224V26ZM138.626 25.3437L138.91 26.3025C142.754 25.1642 146.411 23.2395 149.912 21.4478L149.456 20.5576L149 19.6674C145.448 21.4856 141.97 23.3103 138.342 24.3849L138.626 25.3437ZM133.061 26V27C134.974 27 136.973 26.8761 138.91 26.3025L138.626 25.3437L138.342 24.3849C136.678 24.8776 134.903 25 133.061 25V26ZM71.6909 25.353L71.4096 26.3127C73.3357 26.8773 75.3223 27 77.224 27V26V25C75.3929 25 73.6282 24.8788 71.9722 24.3934L71.6909 25.353ZM54 26V27C55.1635 27 56.1462 26.1968 56.4278 25.1015L55.4593 24.8525L54.4908 24.6034C54.4283 24.8464 54.2184 25 54 25V26ZM154.829 25.0743L153.858 25.3157C154.1 26.2887 154.972 27 156 27V26V25C155.916 25 155.826 24.9396 155.799 24.8329L154.829 25.0743Z" fill="#FF9A8B" mask="url(#path-1-inside-1_2878_12589)"/>
</g>
<defs>
<filter id="filter0_dd_2878_12589" x="0" y="-3.05176e-05" width="210" height="260" filterUnits="userSpaceOnUse" color-interpolation-filters="sRGB">
<feFlood flood-opacity="0" result="BackgroundImageFix"/>
<feColorMatrix in="SourceAlpha" type="matrix" values="0 0 0 0 0 0 0 0 0 0 0 0 0 0 0 0 0 0 127 0" result="hardAlpha"/>
<feOffset dy="4"/>
<feGaussianBlur stdDeviation="12"/>
<feComposite in2="hardAlpha" operator="out"/>
<feColorMatrix type="matrix" values="0 0 0 0 0.92549 0 0 0 0 0.658824 0 0 0 0 0.619608 0 0 0 1 0"/>
<feBlend mode="normal" in2="BackgroundImageFix" result="effect1_dropShadow_2878_12589"/>
<feColorMatrix in="SourceAlpha" type="matrix" values="0 0 0 0 0 0 0 0 0 0 0 0 0 0 0 0 0 0 127 0" result="hardAlpha"/>
<feOffset dy="3"/>
<feGaussianBlur stdDeviation="2"/>
<feComposite in2="hardAlpha" operator="out"/>
<feColorMatrix type="matrix" values="0 0 0 0 1 0 0 0 0 1 0 0 0 0 1 0 0 0 0.25 0"/>
<feBlend mode="normal" in2="effect1_dropShadow_2878_12589" result="effect2_dropShadow_2878_12589"/>
<feBlend mode="normal" in="SourceGraphic" in2="effect2_dropShadow_2878_12589" result="shape"/>
</filter>
<linearGradient id="paint0_linear_2878_12589" x1="105" y1="232" x2="105" y2="20" gradientUnits="userSpaceOnUse">
<stop stop-color="#EA8273"/>
<stop offset="1" stop-color="#ECA89E"/>
</linearGradient>
</defs>
</svg>
