<svg width="178" height="178" viewBox="0 0 178 178" fill="none" xmlns="http://www.w3.org/2000/svg">
<g id="Group 323">
<circle id="Ellipse 83" opacity="0.1" cx="89" cy="89" r="89" fill="#C0B2FF"/>
<g id="Ellipse 84" filter="url(#filter0_ii_1915_4630)">
<circle cx="89" cy="89" r="80" fill="#999DE6"/>
</g>
<path id="Vector" d="M128.298 87.4589C128.298 107.101 113.386 123.687 94.0561 126.258L94.3136 134.944H109.063C112.05 134.944 114.727 137.669 114.727 140.594C114.727 143.518 112.821 146.243 109.834 146.243H67.4641C64.4772 146.243 62.5716 143.518 62.5716 140.594C62.5716 137.669 65.2487 134.944 68.2357 134.944H82.9849L83.2422 126.258C63.9127 123.687 49 107.101 49 87.4589C49 87.4478 49 87.8341 49 87.823C49 87.8174 49 87.8174 49 87.8119C49 84.882 50.7368 81.8088 54.6641 81.8088C59.0534 81.8088 60.3282 84.5344 60.3282 87.4587C60.3365 103.057 72.7268 115.703 88.6488 115.708C104.571 115.703 116.961 103.057 116.97 87.4587C116.97 84.5344 119.647 81.8088 122.634 81.8088C125.621 81.8088 128.298 84.8819 128.298 87.8119C128.298 87.8174 128.298 87.8174 128.298 87.823C128.298 87.834 128.298 87.4478 128.298 87.4589ZM88.6492 107.234C76.7041 107.234 68.8246 99.1615 68.8246 87.4589V50.7762C68.8246 39.0749 76.7042 31 88.6492 31C100.595 31 108.474 39.0749 108.474 50.7762V87.4589C108.474 99.1615 100.594 107.234 88.6492 107.234Z" fill="#403375"/>
<g id="Subtract">
<path d="M101.102 89.0745C100.53 91.3015 99.4759 93.115 98.1084 94.4895C96.0077 96.601 92.8484 98.0002 88.6484 98.0002C84.4483 98.0002 81.2883 96.6011 79.1875 94.4895C77.8201 93.115 76.7666 91.3014 76.1953 89.0745H101.102Z" fill="white"/>
<path d="M101.577 85.1145C101.577 85.2298 101.575 85.3444 101.573 85.4583H75.7227C75.7205 85.3444 75.7188 85.2298 75.7188 85.1145V76.8645H101.577V85.1145Z" fill="white"/>
<path d="M101.577 73.2483H75.7188V64.6545H101.577V73.2483Z" fill="white"/>
</g>
<path id="Subtract_2" opacity="0.2" d="M101.564 52.4436C101.573 52.6662 101.577 52.8918 101.577 53.1204V61.0374H75.7188V53.1204C75.7188 52.8918 75.7231 52.6662 75.7314 52.4436H101.564Z" fill="white"/>
</g>
<defs>
<filter id="filter0_ii_1915_4630" x="-1" y="7" width="180" height="164" filterUnits="userSpaceOnUse" color-interpolation-filters="sRGB">
<feFlood flood-opacity="0" result="BackgroundImageFix"/>
<feBlend mode="normal" in="SourceGraphic" in2="BackgroundImageFix" result="shape"/>
<feColorMatrix in="SourceAlpha" type="matrix" values="0 0 0 0 0 0 0 0 0 0 0 0 0 0 0 0 0 0 127 0" result="hardAlpha"/>
<feOffset dx="-10" dy="-2"/>
<feGaussianBlur stdDeviation="10"/>
<feComposite in2="hardAlpha" operator="arithmetic" k2="-1" k3="1"/>
<feColorMatrix type="matrix" values="0 0 0 0 0.85098 0 0 0 0 0.772549 0 0 0 0 0.909804 0 0 0 1 0"/>
<feBlend mode="normal" in2="shape" result="effect1_innerShadow_1915_4630"/>
<feColorMatrix in="SourceAlpha" type="matrix" values="0 0 0 0 0 0 0 0 0 0 0 0 0 0 0 0 0 0 127 0" result="hardAlpha"/>
<feOffset dx="10" dy="2"/>
<feGaussianBlur stdDeviation="10"/>
<feComposite in2="hardAlpha" operator="arithmetic" k2="-1" k3="1"/>
<feColorMatrix type="matrix" values="0 0 0 0 0.847059 0 0 0 0 0.796078 0 0 0 0 0.913725 0 0 0 1 0"/>
<feBlend mode="normal" in2="effect1_innerShadow_1915_4630" result="effect2_innerShadow_1915_4630"/>
</filter>
</defs>
</svg>
