<svg xmlns="http://www.w3.org/2000/svg" width="56" height="56" viewBox="0 0 56 56" fill="currentColor">
    <path opacity="0.7"
        d="M44.6802 16.043L42.1361 16.0197V11.614C42.1361 10.179 40.9726 9.02327 39.5454 9.01551L11.5907 9C10.1635 9 9 10.1635 9 11.5985V24.0322C9 25.4672 10.1635 26.6307 11.5907 26.6307H39.5221C40.9571 26.6307 42.1128 25.4672 42.1128 24.0322V18.8664H42.7256C43.0048 18.8664 43.2298 19.0913 43.2298 19.3705V27.4374C43.2298 27.7166 43.0048 27.9416 42.7256 27.9416H24.8234C23.9547 27.9416 23.2566 28.6474 23.2566 29.5084V32.7196H22.3025C20.8676 32.7196 19.7041 33.8831 19.7041 35.3258V43.6409C19.7041 45.0758 20.8676 46.2471 22.3025 46.2471H27.0651C28.5 46.2471 29.6635 45.0758 29.6635 43.6409L29.648 35.3724C29.648 33.9374 28.4845 32.7739 27.0495 32.7739H26.0334V31.3079C26.0334 31.0287 26.2584 30.8037 26.5376 30.8037H44.6647C45.5335 30.8037 46.2316 30.0979 46.2316 29.2369V17.6176C46.2316 16.7566 45.5412 16.0507 44.6802 16.043ZM39.049 17.4469C39.049 18.1605 38.475 18.7345 37.7614 18.7345C37.0478 18.7345 36.4738 18.1605 36.4738 17.4469V15.818L13.6927 15.8025C12.9946 15.8025 12.4206 15.2363 12.4206 14.5304C12.4206 13.8246 12.9869 13.2584 13.6927 13.2584H37.7769C38.475 13.2584 39.0335 13.8168 39.0412 14.5149V17.4469H39.049Z"
        fill="white" />
</svg>