<svg xmlns="http://www.w3.org/2000/svg" width="56" height="56" viewBox="0 0 56 56" fill="currentColor">
    <circle cx="28" cy="28" r="28" fill="currentColor" />
    <path
        d="M24.0022 10.3829C25.1714 10.1276 26.3829 10 27.6226 10C28.1579 10 28.6791 10.0284 29.1863 10.0709C29.7216 18.6089 36.6101 25.4309 45.1328 25.7996C45.2032 26.4378 45.2455 27.0902 45.2455 27.7568C45.2455 28.8915 45.1469 30.0119 44.9356 31.0898C33.5673 30.9621 24.3121 21.7859 24.0022 10.3829Z"
        fill="#39334F" />
    <path
        d="M44.8936 24.1832C43.4567 17.1344 37.8501 11.5889 30.7925 10.2983C31.4264 17.7584 37.4275 23.7152 44.8936 24.1832Z"
        fill="#39334F" />
    <path
        d="M18.2549 21.2189C17.4096 18.8503 16.9166 16.34 16.7616 13.7729C13.6625 16.2265 11.3945 19.7013 10.4647 23.6867C13.254 23.6016 15.9305 22.7506 18.2549 21.2189Z"
        fill="#39334F" />
    <path
        d="M22.425 10.7939C20.9741 11.2478 19.5935 11.886 18.3116 12.6802C18.537 26.0546 29.2572 36.8902 42.5273 37.2023C43.4007 35.8123 44.0909 34.2806 44.5558 32.6638C32.6241 32.3659 22.9462 22.75 22.425 10.7939Z"
        fill="#39334F" />
    <path
        d="M36.0048 37.8553C37.7657 38.3375 39.5829 38.6495 41.4283 38.763C39.9385 40.6558 38.0733 42.2341 35.9462 43.3861H44.4429C45.0064 43.3861 45.4854 43.8541 45.4854 44.4356C45.4854 45.0171 45.0205 45.4852 44.4429 45.4852H28.3039C28.078 45.4943 27.851 45.4992 27.623 45.4998C25.9044 45.4998 24.2562 45.2445 22.6925 44.7907C27.7779 43.4575 32.483 41.0181 36.0048 37.8553Z"
        fill="#39334F" />
    <path
        d="M20.016 43.7549C25.4536 42.7338 30.4545 40.4929 34.2439 37.2876C32.1308 36.5359 30.1305 35.5006 28.271 34.2241C24.1012 37.5003 19.058 38.8051 14.0149 39.0037C15.6349 41.0035 17.6916 42.6203 20.016 43.7549Z"
        fill="#39334F" />
    <path
        d="M10.2817 30.8773C10.0986 29.8562 10 28.8067 10 27.743C10 26.9062 10.0563 26.0836 10.1831 25.2893C13.2682 25.2468 16.2547 24.3816 18.8608 22.7364C19.5229 24.3107 20.3399 25.8141 21.3119 27.2324C18.0296 29.4449 14.2402 30.693 10.2817 30.8773Z"
        fill="#39334F" />
    <path
        d="M26.862 33.1891C26.0167 32.5225 25.2138 31.8134 24.4531 31.0333C23.6642 30.2391 22.9176 29.3881 22.2414 28.523C18.776 30.8773 14.7893 32.2105 10.6337 32.4516C11.1267 34.2386 11.8874 35.9122 12.8735 37.4297C17.8744 37.3872 22.6922 35.9264 26.862 33.1891Z"
        fill="#39334F" />
</svg>