<svg xmlns="http://www.w3.org/2000/svg" width="56" height="56" viewBox="0 0 56 56" fill="currentColor">
    <g opacity="0.7">
        <path
            d="M15.9659 48.7647C16.0652 48.7647 16.1479 48.7151 16.1976 48.6158L15.9659 48.7647ZM40.861 7.0025C36.8884 7.0025 33.8923 9.84955 28.1486 9.84955C22.4048 9.84955 18.9619 7.0025 15.2044 7.0025C13.1354 6.95284 11.3973 8.59155 11.3477 10.6606C11.3311 11.1407 11.3973 11.6041 11.5629 12.0345L14.2113 26.4353C15.6679 27.1636 16.7935 28.4216 17.3397 29.961H38.9243C39.4706 28.4216 40.5961 27.1636 42.0528 26.4518L44.7012 12.051C45.3633 10.0151 44.2543 7.84668 42.2183 7.18458C41.8045 7.05216 41.3245 6.98595 40.861 7.0025ZM18.7467 15.3616C18.1673 15.3616 17.7039 14.8981 17.7039 14.3188C17.7039 13.7394 18.1673 13.2759 18.7467 13.2759C19.326 13.2759 19.7895 13.7394 19.7895 14.3188C19.7895 14.8981 19.326 15.3616 18.7467 15.3616ZM20.8323 23.7206C20.253 23.7206 19.7895 23.2406 19.7895 22.6613C19.7895 22.0819 20.253 21.6185 20.8323 21.6185C21.4117 21.6185 21.8751 22.0819 21.8751 22.6613C21.8751 23.2406 21.4117 23.7206 20.8323 23.7206ZM28.1486 24.7138C27.5692 24.7138 27.1058 24.2503 27.1058 23.671C27.1058 23.0916 27.5692 22.6282 28.1486 22.6282C28.7279 22.6282 29.1914 23.0916 29.1914 23.671C29.1914 24.2503 28.7279 24.7138 28.1486 24.7138ZM28.1486 16.3547C27.5692 16.3547 27.1058 15.8913 27.1058 15.3119C27.1058 14.7326 27.5692 14.2691 28.1486 14.2691C28.7279 14.2691 29.1914 14.7326 29.1914 15.3119C29.2079 15.8913 28.761 16.3713 28.1817 16.4044C28.1651 16.4044 28.1486 16.4044 28.132 16.4044L28.1486 16.3547ZM35.4483 23.7206C34.8689 23.7206 34.4055 23.2572 34.4055 22.6778C34.4055 22.0985 34.8689 21.635 35.4483 21.635C36.0276 21.635 36.4911 22.0985 36.4911 22.6778C36.4911 23.2406 36.0276 23.7206 35.4483 23.7206ZM37.5339 15.3616C36.9546 15.3616 36.4911 14.8981 36.4911 14.3188C36.4911 13.7394 36.9546 13.2759 37.5339 13.2759C38.1132 13.2759 38.5767 13.7394 38.5767 14.3188C38.5767 14.8981 38.1132 15.3616 37.5339 15.3616Z"
            fill="white" />
        <path
            d="M17.2893 44.5944C17.5707 44.5944 17.819 44.8096 17.819 45.1075C17.819 45.1903 17.8024 45.273 17.7693 45.3558L16.2465 48.6001C16.2134 48.6829 16.114 48.7491 16.0147 48.7491H14.8892C14.7567 48.7491 14.6409 48.6332 14.6409 48.5008V48.4842L15.2864 44.9751C15.3361 44.7268 15.5513 44.5447 15.8161 44.5613L17.2893 44.5944ZM41.6547 48.5008C41.6713 48.6332 41.572 48.7656 41.423 48.7656H40.314C40.2146 48.7656 40.1319 48.716 40.0822 48.6167L38.5759 45.3392C38.4435 45.0744 38.5594 44.7599 38.8077 44.644C38.8573 44.6109 38.9235 44.5944 38.9897 44.5944H40.4795C40.7278 44.5944 40.943 44.7599 41.0092 45.0082L41.6547 48.5008Z"
            fill="white" />
        <path
            d="M46.4553 35.9369C45.4787 36.3342 44.8497 37.2777 44.8497 38.3371C44.8497 40.5717 43.1117 42.409 40.8771 42.5083H15.4192C13.1846 42.409 11.43 40.5717 11.43 38.3371C11.43 37.2943 10.801 36.3673 9.82442 35.97C7.63948 35.2252 6.48079 32.8416 7.22566 30.6567C7.73879 29.1835 9.0299 28.1075 10.5693 27.8758C10.8507 27.8427 11.1486 27.8427 11.43 27.8758C13.2177 27.8758 14.8068 29.0179 15.3695 30.7229C15.7006 31.5836 16.5448 32.1133 17.4552 32.0636H38.8411C39.7515 32.1298 40.5957 31.5836 40.9268 30.7229C41.4896 29.051 43.0621 27.9089 44.8332 27.8758C45.1146 27.8427 45.4125 27.8427 45.6939 27.8758C47.9616 28.3393 49.4183 30.5408 48.9548 32.8085C48.6734 34.1658 47.7299 35.3079 46.4553 35.8376V35.9369Z"
            fill="white" />
        <path
            d="M46.4553 35.9369C45.4787 36.3342 44.8497 37.2777 44.8497 38.3371C44.8497 40.5717 43.1117 42.409 40.8771 42.5083H15.4192C13.1846 42.409 11.43 40.5717 11.43 38.3371C11.43 37.2943 10.801 36.3673 9.82442 35.97C7.63948 35.2252 6.48079 32.8416 7.22566 30.6567C7.73879 29.1835 9.0299 28.1075 10.5693 27.8758C10.8507 27.8427 11.1486 27.8427 11.43 27.8758C13.2177 27.8758 14.8068 29.0179 15.3695 30.7229C15.7006 31.5836 16.5448 32.1133 17.4552 32.0636H38.8411C39.7515 32.1298 40.5957 31.5836 40.9268 30.7229C41.4896 29.051 43.0621 27.9089 44.8332 27.8758C45.1146 27.8427 45.4125 27.8427 45.6939 27.8758C47.9616 28.3393 49.4183 30.5408 48.9548 32.8085C48.6734 34.1658 47.7299 35.3079 46.4553 35.8376V35.9369Z"
            fill="white" />
    </g>
</svg>